<?xml version="1.0" encoding="UTF-8" standalone="no"?>
<!-- Created with Inkscape (http://www.inkscape.org/) -->

<svg
   xmlns:dc="http://purl.org/dc/elements/1.1/"
   xmlns:cc="http://creativecommons.org/ns#"
   xmlns:rdf="http://www.w3.org/1999/02/22-rdf-syntax-ns#"
   xmlns:svg="http://www.w3.org/2000/svg"
   xmlns="http://www.w3.org/2000/svg"
   xmlns:sodipodi="http://sodipodi.sourceforge.net/DTD/sodipodi-0.dtd"
   xmlns:inkscape="http://www.inkscape.org/namespaces/inkscape"
   id="svg2"
   version="1.1"
   inkscape:version="0.48.3.1 r9886"
   width="765"
   height="990"
   xml:space="preserve"
   sodipodi:docname="ComplexeScolaire.ai"><metadata
     id="metadata8"><rdf:RDF><cc:Work
         rdf:about=""><dc:format>image/svg+xml</dc:format><dc:type
           rdf:resource="http://purl.org/dc/dcmitype/StillImage" /><dc:title></dc:title></cc:Work></rdf:RDF></metadata><defs
     id="defs6"><clipPath
       clipPathUnits="userSpaceOnUse"
       id="clipPath16"><path
         d="M 0,792 612,792 612,0 0,0 0,792 z"
         id="path18" /></clipPath></defs><sodipodi:namedview
     pagecolor="#ffffff"
     bordercolor="#666666"
     borderopacity="1"
     objecttolerance="10"
     gridtolerance="10"
     guidetolerance="10"
     inkscape:pageopacity="0"
     inkscape:pageshadow="2"
     inkscape:window-width="1280"
     inkscape:window-height="975"
     id="namedview4"
     showgrid="false"
     inkscape:zoom="0.23838384"
     inkscape:cx="382.5"
     inkscape:cy="495"
     inkscape:window-x="0"
     inkscape:window-y="25"
     inkscape:window-maximized="1"
     inkscape:current-layer="g10" /><g
     id="g10"
     inkscape:groupmode="layer"
     inkscape:label="ComplexeScolaire"
     transform="matrix(1.25,0,0,-1.25,0,990)"><g
       id="g12"><g
         id="g14"
         clip-path="url(#clipPath16)"><g
           id="g20"
           transform="translate(312.3799,269.5371)"><path
             d="m 0,0 c -109.908,0 -199.009,86.641 -199.009,193.509 0,106.866 89.101,193.503 199.009,193.503 109.906,0 199.004,-86.637 199.004,-193.503 C 199.004,86.641 109.906,0 0,0 m 0,395.869 c -114.747,0 -207.761,-90.297 -207.761,-201.681 0,-111.379 93.014,-201.679 207.761,-201.679 114.742,0 207.761,90.3 207.761,201.679 0,111.384 -93.019,201.681 -207.761,201.681"
             style="fill:#008e66;fill-opacity:1;fill-rule:nonzero;stroke:none"
             id="path22" /></g><g
           id="g24"
           transform="translate(501.5713,463.0459)"><path
             d="m 0,0 c 0,-101.6 -84.705,-183.975 -189.191,-183.975 -104.495,0 -189.198,82.375 -189.198,183.975 0,101.6 84.703,183.958 189.198,183.958 C -84.705,183.958 0,101.6 0,0"
             style="fill:#c06a3a;fill-opacity:1;fill-rule:nonzero;stroke:none"
             id="path26" /></g><g
           id="g28"
           transform="translate(123.7925,557.8457)"><path
             d="m 0,0 c -1.276,-2.466 -3.225,-4.117 -5.846,-4.943 -2.622,-0.834 -5.153,-0.617 -7.602,0.652 L -33.684,6.198 c -2.46,1.275 -4.109,3.229 -4.937,5.862 -0.822,2.627 -0.603,5.168 0.662,7.612 1.282,2.467 3.229,4.111 5.857,4.928 2.627,0.81 5.158,0.586 7.606,-0.679 l 4.23,-2.196 -3.005,-5.794 -4.352,2.253 c -0.885,0.458 -1.807,0.534 -2.766,0.228 -0.96,-0.298 -1.668,-0.896 -2.127,-1.781 -0.46,-0.893 -0.535,-1.812 -0.224,-2.753 0.304,-0.948 0.903,-1.656 1.795,-2.118 L -10.654,1.247 C -9.767,0.781 -8.847,0.707 -7.906,1 c 0.944,0.299 1.646,0.897 2.106,1.781 0.46,0.886 0.54,1.811 0.246,2.767 -0.292,0.948 -0.885,1.656 -1.77,2.115 l -5.117,2.656 3.006,5.793 5.176,-2.683 C -1.793,12.152 -0.154,10.199 0.662,7.577 1.477,4.95 1.259,2.425 0,0"
             style="fill:#008e66;fill-opacity:1;fill-rule:nonzero;stroke:none"
             id="path30" /></g><g
           id="g32"
           transform="translate(113.3413,603.5093)"><path
             d="M 0,0 C -0.822,0.573 -1.719,0.781 -2.691,0.608 -3.667,0.437 -4.443,-0.053 -5.018,-0.868 -5.594,-1.686 -5.8,-2.587 -5.634,-3.571 c 0.156,-0.99 0.65,-1.764 1.465,-2.345 l 18.69,-13.161 c 0.817,-0.58 1.718,-0.775 2.696,-0.596 0.984,0.177 1.759,0.678 2.341,1.494 0.574,0.818 0.777,1.714 0.609,2.685 -0.173,0.978 -0.661,1.754 -1.483,2.328 L 0,0 z m -10.044,2.875 c 1.599,2.269 3.76,3.639 6.479,4.099 C -0.85,7.44 1.637,6.876 3.885,5.288 L 22.519,-7.836 c 2.269,-1.599 3.639,-3.761 4.103,-6.472 0.461,-2.728 -0.102,-5.205 -1.689,-7.458 -1.598,-2.269 -3.748,-3.633 -6.462,-4.088 -2.714,-0.454 -5.197,0.11 -7.446,1.703 l -18.631,13.123 c -2.272,1.601 -3.638,3.754 -4.098,6.473 -0.467,2.721 0.086,5.192 1.66,7.43"
             style="fill:#008e66;fill-opacity:1;fill-rule:nonzero;stroke:none"
             id="path34" /></g><g
           id="g36"
           transform="translate(153.2495,601.5815)"><path
             d="m 0,0 -4.392,-4.512 -29.951,29.141 6.301,6.479 25.611,-16.729 -17.586,24.974 6.048,6.221 L 15.982,16.431 11.597,11.923 -7.228,30.229 7.784,8.004 4.249,4.375 -18.776,18.271 0,0 z"
             style="fill:#008e66;fill-opacity:1;fill-rule:nonzero;stroke:none"
             id="path38" /></g><g
           id="g40"
           transform="translate(168.0313,657.0938)"><path
             d="M 0,0 C -0.656,0.87 -1.45,1.374 -2.37,1.518 -3.296,1.656 -4.191,1.404 -5.06,0.748 l -3.041,-2.278 8.009,-10.692 3.041,2.277 c 0.799,0.596 1.263,1.392 1.397,2.38 0.136,0.989 -0.098,1.88 -0.698,2.684 L 0,0 z m -9.05,5.801 c 2.456,1.833 4.991,2.526 7.6,2.071 C 1.011,7.404 3.097,6.025 4.816,3.734 l 3.635,-4.855 c 1.654,-2.207 2.294,-4.663 1.924,-7.38 -0.36,-2.721 -1.644,-4.899 -3.823,-6.53 L 3.638,-17.213 13.066,-29.801 8.029,-33.574 -17,-0.156 -9.05,5.801 z"
             style="fill:#008e66;fill-opacity:1;fill-rule:nonzero;stroke:none"
             id="path42" /></g><g
           id="g44"
           transform="translate(213.625,648.2588)"><path
             d="m 0,0 -14.907,-8.509 -20.685,36.271 5.469,3.119 L -12.54,0.058 -3.105,5.439 0,0 z"
             style="fill:#008e66;fill-opacity:1;fill-rule:nonzero;stroke:none"
             id="path46" /></g><g
           id="g48"
           transform="translate(220.2202,651.5459)"><path
             d="M 0,0 -16.346,38.455 0.154,45.469 2.625,39.64 -8.072,35.098 -3.618,24.605 4.202,27.927 6.679,22.1 -1.14,18.781 3.314,8.29 14.021,12.838 16.498,7.014 0,0 z"
             style="fill:#008e66;fill-opacity:1;fill-rule:nonzero;stroke:none"
             id="path50" /></g><g
           id="g52"
           transform="translate(266.0322,667.3916)"><path
             d="m 0,0 -6.514,-1.813 -8.22,11.516 -1.121,-14.114 -6.518,-1.809 2.269,22.419 -13.458,17.805 6.708,1.869 7.952,-11.176 1.011,13.665 6.703,1.863 L -13.522,18.034 0,0 z"
             style="fill:#008e66;fill-opacity:1;fill-rule:nonzero;stroke:none"
             id="path54" /></g><g
           id="g56"
           transform="translate(274.2021,668.9028)"><path
             d="M 0,0 -5.726,41.392 12.03,43.847 12.894,37.575 1.379,35.982 2.943,24.691 11.354,25.853 12.222,19.582 3.804,18.421 5.368,7.134 16.89,8.721 17.756,2.449 0,0 z"
             style="fill:#008e66;fill-opacity:1;fill-rule:nonzero;stroke:none"
             id="path58" /></g><g
           id="g60"
           transform="translate(365.9492,676.6646)"><path
             d="m 0,0 c -0.496,-2.87 -1.704,-5.173 -3.618,-6.912 -1.265,-1.184 -2.867,-1.892 -4.803,-2.109 -1.045,-0.115 -2.214,-0.057 -3.532,0.19 -2.422,0.459 -4.31,1.443 -5.682,2.942 -1.139,1.238 -1.94,2.771 -2.394,4.613 -0.455,1.84 -0.544,3.861 -0.259,6.07 l 5.973,-0.689 c -0.191,-2.444 0.112,-4.296 0.914,-5.561 0.587,-0.954 1.365,-1.501 2.333,-1.638 1.365,-0.213 2.57,0.248 3.621,1.386 0.534,0.552 0.914,1.42 1.139,2.597 0.321,1.708 -0.133,3.55 -1.362,5.527 -1,1.385 -2.505,3.471 -4.515,6.25 -1.673,2.377 -2.787,4.431 -3.336,6.165 -0.582,1.945 -0.68,3.95 -0.285,6.031 0.701,3.731 2.496,6.326 5.372,7.768 1.77,0.868 3.8,1.08 6.085,0.65 2.208,-0.42 4.004,-1.266 5.391,-2.547 1.08,-1 1.861,-2.253 2.354,-3.773 0.496,-1.516 0.644,-3.183 0.459,-5.001 L -2.276,22 c 0.142,1.715 -0.089,3.117 -0.696,4.202 -0.438,0.782 -1.196,1.277 -2.267,1.48 -1.134,0.211 -2.087,-0.122 -2.867,-1.019 -0.635,-0.713 -1.063,-1.673 -1.294,-2.875 -0.357,-1.875 0.091,-3.938 1.341,-6.186 0.469,-0.862 1.223,-1.909 2.25,-3.138 1.217,-1.472 2.006,-2.496 2.374,-3.066 C -2.196,9.583 -1.306,7.857 -0.76,6.212 -0.496,5.438 -0.3,4.731 -0.175,4.098 0.137,2.529 0.196,1.161 0,0"
             style="fill:#008e66;fill-opacity:1;fill-rule:nonzero;stroke:none"
             id="path62" /></g><g
           id="g64"
           transform="translate(381.292,660.6982)"><path
             d="m 0,0 c -2.639,0.88 -4.571,2.541 -5.806,5.002 -1.229,2.455 -1.413,4.991 -0.546,7.607 l 7.171,21.633 c 0.882,2.631 2.55,4.564 5.023,5.8 2.467,1.231 5.001,1.408 7.622,0.54 2.633,-0.873 4.559,-2.547 5.776,-5.007 1.22,-2.466 1.399,-5.002 0.529,-7.617 l -1.499,-4.523 -6.195,2.055 1.537,4.653 c 0.315,0.944 0.243,1.867 -0.205,2.769 -0.448,0.898 -1.151,1.501 -2.098,1.819 -0.95,0.315 -1.87,0.241 -2.754,-0.207 C 7.664,34.068 7.064,33.368 6.75,32.419 L -0.448,10.722 C -0.766,9.774 -0.694,8.854 -0.252,7.976 0.185,7.084 0.885,6.486 1.834,6.17 2.784,5.859 3.701,5.916 4.601,6.359 5.491,6.802 6.1,7.492 6.414,8.445 l 1.82,5.469 6.195,-2.053 -1.841,-5.535 C 11.716,3.686 10.048,1.759 7.581,0.541 5.123,-0.678 2.595,-0.856 0,0"
             style="fill:#008e66;fill-opacity:1;fill-rule:nonzero;stroke:none"
             id="path66" /></g><g
           id="g68"
           transform="translate(424.6406,678.3418)"><path
             d="M 0,0 C 0.433,0.898 0.486,1.816 0.166,2.754 -0.158,3.691 -0.772,4.375 -1.669,4.806 -2.571,5.249 -3.491,5.301 -4.441,4.985 -5.376,4.663 -6.073,4.055 -6.51,3.157 l -9.976,-20.569 c -0.427,-0.899 -0.481,-1.818 -0.149,-2.76 0.336,-0.937 0.95,-1.627 1.847,-2.065 0.902,-0.436 1.822,-0.488 2.755,-0.167 0.937,0.323 1.626,0.938 2.056,1.834 L 0,0 z M 1.217,10.373 C 3.713,9.164 5.408,7.25 6.305,4.646 7.2,2.036 7.046,-0.506 5.85,-2.983 l -9.947,-20.506 c -1.211,-2.501 -3.119,-4.196 -5.728,-5.094 -2.607,-0.896 -5.154,-0.742 -7.628,0.459 -2.5,1.208 -4.192,3.116 -5.082,5.72 -0.885,2.6 -0.728,5.142 0.48,7.619 l 9.938,20.514 c 1.215,2.498 3.123,4.194 5.735,5.092 2.609,0.896 5.141,0.746 7.599,-0.448"
             style="fill:#008e66;fill-opacity:1;fill-rule:nonzero;stroke:none"
             id="path70" /></g><g
           id="g72"
           transform="translate(438.2471,632.5879)"><path
             d="M 0,0 -14.366,9.381 8.474,44.333 13.745,40.892 -5.67,11.18 3.425,5.242 0,0 z"
             style="fill:#008e66;fill-opacity:1;fill-rule:nonzero;stroke:none"
             id="path74" /></g><g
           id="g76"
           transform="translate(473.8535,645.3604)"><path
             d="M 0,0 -12.467,-11.002 -8.922,-14.033 0,0 z m -17.191,-15.027 -7.401,-6.3 -4.983,4.26 32.519,27.128 6.584,-5.628 -21.799,-36.288 -5.04,4.308 5.121,8.249 -5.001,4.271 z"
             style="fill:#008e66;fill-opacity:1;fill-rule:nonzero;stroke:none"
             id="path78" /></g><g
           id="g80"
           transform="translate(471.6514,602.8296)"><path
             d="M 0,0 -4.315,4.587 26.067,33.225 30.392,28.641 0,0 z"
             style="fill:#008e66;fill-opacity:1;fill-rule:nonzero;stroke:none"
             id="path82" /></g><g
           id="g84"
           transform="translate(511.0781,604.7236)"><path
             d="M 0,0 C 1.933,1.463 2.173,3.147 0.728,5.062 L -1.573,8.087 -12.214,0.01 -9.923,-3.021 c 0.606,-0.792 1.404,-1.253 2.393,-1.384 0.991,-0.126 1.884,0.108 2.677,0.718 L 0,0 z M 5.744,9.081 C 7.866,6.288 8.652,3.653 8.106,1.171 7.638,-0.996 6.201,-2.997 3.791,-4.827 l -4.823,-3.667 c -2.361,-1.787 -5.026,-2.402 -8.018,-1.851 l -11.692,-14.734 -4.122,5.422 10.221,12.555 c -0.106,0.138 -0.221,0.287 -0.337,0.449 l -2.197,2.893 -12.532,-9.51 -3.805,5.018 33.25,25.245 6.008,-7.912 z"
             style="fill:#008e66;fill-opacity:1;fill-rule:nonzero;stroke:none"
             id="path86" /></g><g
           id="g88"
           transform="translate(494.9043,572.5166)"><path
             d="M 0,0 36.364,20.576 45.194,4.972 39.683,1.856 33.957,11.975 24.04,6.364 28.226,-1.029 22.713,-4.146 18.528,3.249 8.608,-2.363 14.337,-12.487 8.828,-15.603 0,0 z"
             style="fill:#008e66;fill-opacity:1;fill-rule:nonzero;stroke:none"
             id="path90" /></g><g
           id="g92"
           transform="translate(123.7686,278.0322)"><path
             d="m 0,0 22.06,37.475 -9.589,5.645 c 0,0 -16.39,-5.349 -32.425,-12.829 C -35.987,22.806 -67.342,6.418 -67.342,6.418 l 31.71,-16.391 -31.71,-49.525 c 0,0 18.887,13.535 54.518,27.433 35.631,13.897 65.917,21.736 65.917,21.736 L 52.959,-9.884 0,0 z"
             style="fill:#c06a3a;fill-opacity:1;fill-rule:nonzero;stroke:none"
             id="path94" /></g><g
           id="g96"
           transform="translate(184.7144,271.9805)"><path
             d="M 0,0 0,33.85 -46.326,21.73 -52.734,10.329 0,0 z"
             style="fill:#c06a3a;fill-opacity:1;fill-rule:nonzero;stroke:none"
             id="path98" /></g><g
           id="g100"
           transform="translate(501.7549,278.0322)"><path
             d="m 0,0 -22.065,37.475 9.592,5.645 c 0,0 16.391,-5.349 32.426,-12.829 C 35.987,22.806 67.344,6.418 67.344,6.418 L 35.631,-9.973 67.344,-59.498 c 0,0 -18.89,13.535 -54.518,27.433 -35.634,13.897 -65.919,21.736 -65.919,21.736 l 0.128,0.445 L 0,0 z"
             style="fill:#c06a3a;fill-opacity:1;fill-rule:nonzero;stroke:none"
             id="path102" /></g><g
           id="g104"
           transform="translate(440.8115,271.9805)"><path
             d="M 0,0 0,33.85 46.316,21.73 52.733,10.329 0,0 z"
             style="fill:#c06a3a;fill-opacity:1;fill-rule:nonzero;stroke:none"
             id="path106" /></g><g
           id="g108"
           transform="translate(389.7666,599.0479)"><path
             d="m 0,0 -2.342,-1.1 -10.448,1.622 0,10.998 L -3.066,9.899 0,7.013 0,0 z m 0,-25.969 -2.701,-1.436 -10.089,1.978 0,12.934 9.37,-1.403 3.42,-2.812 0,-9.261 z M 19.104,7.731 8.403,20.425 c -11.514,2.759 -26.881,5.829 -44.631,7.877 l 0,-13.36 4.328,-0.54 0,-36.046 -4.141,0.362 0,-13.534 c 18.275,-2.086 33.776,-5.19 44.842,-7.823 l 9.943,6.575 0,18.927 -4.327,5.586 4.687,2.704 0,16.578 z m -82.182,-1.258 -2.518,-1.805 -10.634,0.184 0,12.257 10.451,-0.363 2.701,-1.985 0,-8.288 z m -12.435,24.152 c -8.313,0 -16.39,-0.312 -24.151,-0.822 l 0,-12.694 4.33,0 0,-36.224 -4.33,-0.363 0,-13.682 c 7.353,0.444 15.061,0.707 23.071,0.707 1.576,0 3.132,-0.018 4.687,-0.04 l 0,13.919 -4.504,0 0,10.267 22.702,-0.719 10.096,8.83 0,19.466 -11.131,10.689 c -6.718,0.424 -13.654,0.666 -20.77,0.666 m -71.722,-40.91 5.765,12.974 5.944,-11.175 -11.709,-1.799 z m 21.08,24.328 3.967,0.718 0,12.902 c -14.758,-1.827 -27.566,-4.218 -37.489,-6.391 l 0,-13.177 3.605,0.902 -15.861,-39.65 -4.863,-1.622 0,-13.464 c 1.344,0.414 10.923,3.271 26.312,6.233 l 0,13.537 -2.525,-0.355 1.806,4.144 19.466,3.421 2.161,-3.783 -2.885,-0.54 0,-13.406 c 8.318,1.194 17.573,2.247 27.572,2.984 l 0,13.663 -4.687,-0.54 -16.579,34.424 z"
             style="fill:#ffffff;fill-opacity:1;fill-rule:nonzero;stroke:none"
             id="path110" /></g><g
           id="g112"
           transform="translate(523.6465,503.2422)"><path
             d="m 0,0 -34.747,31.339 c 0,0 -85.171,8.179 -104.244,10.905 -19.08,2.725 -46.338,-2.726 -57.238,-8.853 -7.58,-4.268 -12.193,-11.5 -14.988,-17.109 -2.793,5.609 -7.408,12.841 -14.986,17.109 -10.905,6.127 -38.161,11.578 -57.236,8.853 -19.079,-2.726 -104.245,-10.905 -104.245,-10.905 L -422.437,0 -464.679,-181.241 c 0,0 20.444,-0.677 35.432,0.682 14.985,1.366 44.967,4.091 44.967,4.091 l 173.063,11.876 173.06,-11.876 c 0,0 29.982,-2.725 44.974,-4.091 14.988,-1.359 35.433,-0.682 35.433,-0.682 L 0,0 z"
             style="fill:#008e66;fill-opacity:1;fill-rule:nonzero;stroke:none"
             id="path114" /></g><g
           id="g116"
           transform="translate(523.6465,503.2422)"><path
             d="m 0,0 -34.747,31.339 c 0,0 -85.171,8.179 -104.244,10.905 -19.08,2.725 -46.338,-2.726 -57.238,-8.853 -7.58,-4.268 -12.193,-11.5 -14.988,-17.109 -2.793,5.609 -7.408,12.841 -14.986,17.109 -10.905,6.127 -38.161,11.578 -57.236,8.853 -19.079,-2.726 -104.245,-10.905 -104.245,-10.905 L -422.437,0 -464.679,-181.241 c 0,0 20.444,-0.677 35.432,0.682 14.985,1.366 44.967,4.091 44.967,4.091 l 173.063,11.876 173.06,-11.876 c 0,0 29.982,-2.725 44.974,-4.091 14.988,-1.359 35.433,-0.682 35.433,-0.682 L 0,0 z"
             style="fill:none;stroke:#ffffff;stroke-opacity:1;stroke-width:14.252;stroke-linecap:butt;stroke-linejoin:miter;stroke-miterlimit:4;stroke-dasharray:none"
             id="path118" /></g><g
           id="g120"
           transform="translate(523.6465,503.2422)"><path
             d="m 0,0 -34.747,31.339 c 0,0 -85.171,8.179 -104.244,10.905 -19.08,2.725 -46.338,-2.726 -57.238,-8.853 -7.58,-4.268 -12.193,-11.5 -14.988,-17.109 -2.793,5.609 -7.408,12.841 -14.986,17.109 -10.905,6.127 -38.161,11.578 -57.236,8.853 -19.079,-2.726 -104.245,-10.905 -104.245,-10.905 L -422.437,0 -464.679,-181.241 c 0,0 20.444,-0.677 35.432,0.682 14.985,1.366 44.967,4.091 44.967,4.091 l 173.063,11.876 173.06,-11.876 c 0,0 29.982,-2.725 44.974,-4.091 14.988,-1.359 35.433,-0.682 35.433,-0.682 L 0,0 z"
             style="fill:#008e66;fill-opacity:1;fill-rule:nonzero;stroke:none"
             id="path122" /></g><g
           id="g124"
           transform="translate(496.1514,350.627)"><path
             d="m 0,0 c -121.027,43.019 -246.372,43.007 -367.405,0 l 0,-65.919 c 121.023,43.022 246.389,43.034 367.405,0 L 0,0 z"
             style="fill:#c06a3a;fill-opacity:1;fill-rule:nonzero;stroke:none"
             id="path126" /></g><g
           id="g128"
           transform="translate(496.1514,350.627)"><path
             d="m 0,0 c -121.027,43.019 -246.372,43.007 -367.405,0 l 0,-65.919 c 121.023,43.022 246.389,43.034 367.405,0 L 0,0 z"
             style="fill:none;stroke:#ffffff;stroke-opacity:1;stroke-width:9.62;stroke-linecap:butt;stroke-linejoin:miter;stroke-miterlimit:4;stroke-dasharray:none"
             id="path130" /></g><g
           id="g132"
           transform="translate(496.1514,350.627)"><path
             d="m 0,0 c -121.027,43.019 -246.372,43.007 -367.405,0 l 0,-65.919 c 121.023,43.022 246.389,43.034 367.405,0 L 0,0 z"
             style="fill:#c06a3a;fill-opacity:1;fill-rule:nonzero;stroke:none"
             id="path134" /></g><g
           id="g136"
           transform="translate(160.6787,341.9629)"><path
             d="m 0,0 c 0.977,-7.513 1.487,-11.265 2.528,-18.76 1.846,0.502 2.766,0.748 4.611,1.233 C 4.316,-10.505 2.885,-7.002 0,0 m 3.402,-25.773 c 0.558,-4.381 0.838,-6.573 1.42,-10.954 -2.507,-0.694 -3.759,-1.05 -6.26,-1.768 -2.076,15.933 -4.025,31.867 -5.841,47.824 3.598,0.991 5.399,1.466 9.008,2.404 6.334,-14.764 12.54,-29.548 18.627,-44.417 -2.541,-0.62 -3.818,-0.943 -6.359,-1.59 -1.655,4.089 -2.487,6.131 -4.167,10.222 -2.576,-0.671 -3.858,-1.015 -6.428,-1.721"
             style="fill:#ffffff;fill-opacity:1;fill-rule:nonzero;stroke:none"
             id="path138" /></g><g
           id="g140"
           transform="translate(160.6787,341.9629)"><path
             d="m 0,0 c 0.977,-7.513 1.487,-11.265 2.528,-18.76 1.846,0.502 2.766,0.748 4.611,1.233 C 4.316,-10.505 2.885,-7.002 0,0 z m 3.402,-25.773 c 0.558,-4.381 0.838,-6.573 1.42,-10.954 -2.507,-0.694 -3.759,-1.05 -6.26,-1.768 -2.076,15.933 -4.025,31.867 -5.841,47.824 3.598,0.991 5.399,1.466 9.008,2.404 6.334,-14.764 12.54,-29.548 18.627,-44.417 -2.541,-0.62 -3.818,-0.943 -6.359,-1.59 -1.655,4.089 -2.487,6.131 -4.167,10.222 -2.576,-0.671 -3.858,-1.015 -6.428,-1.721 z"
             style="fill:none;stroke:#ffffff;stroke-opacity:1;stroke-width:1.605;stroke-linecap:butt;stroke-linejoin:miter;stroke-miterlimit:4;stroke-dasharray:none"
             id="path142" /></g><g
           id="g144"
           transform="translate(191.8081,319.0859)"><path
             d="m 0,0 c 1.483,0.327 2.229,0.49 3.713,0.808 0.977,0.208 1.719,0.787 2.225,1.733 0.514,0.944 0.65,1.965 0.425,3.058 -2.017,9.765 -3.03,14.645 -5.054,24.405 -0.228,1.115 -0.792,2 -1.683,2.647 -0.89,0.635 -1.845,0.849 -2.858,0.629 C -4.805,32.948 -5.593,32.781 -7.164,32.438 -4.301,19.46 -2.869,12.972 0,0 m 12.396,6.97 c 0.602,-3.09 0.166,-5.901 -1.278,-8.462 -1.443,-2.571 -3.472,-4.123 -6.11,-4.694 -3.825,-0.816 -5.732,-1.246 -9.55,-2.13 -3.598,15.47 -7.205,30.947 -10.802,46.411 4.137,0.965 6.216,1.43 10.372,2.321 2.89,0.623 5.581,0.029 8.03,-1.751 C 5.502,36.881 7.014,34.45 7.611,31.398 9.525,21.621 10.479,16.735 12.396,6.97"
             style="fill:#ffffff;fill-opacity:1;fill-rule:nonzero;stroke:none"
             id="path146" /></g><g
           id="g148"
           transform="translate(191.8081,319.0859)"><path
             d="m 0,0 c 1.483,0.327 2.229,0.49 3.713,0.808 0.977,0.208 1.719,0.787 2.225,1.733 0.514,0.944 0.65,1.965 0.425,3.058 -2.017,9.765 -3.03,14.645 -5.054,24.405 -0.228,1.115 -0.792,2 -1.683,2.647 -0.89,0.635 -1.845,0.849 -2.858,0.629 C -4.805,32.948 -5.593,32.781 -7.164,32.438 -4.301,19.46 -2.869,12.972 0,0 z m 12.396,6.97 c 0.602,-3.09 0.166,-5.901 -1.278,-8.462 -1.443,-2.571 -3.472,-4.123 -6.11,-4.694 -3.825,-0.816 -5.732,-1.246 -9.55,-2.13 -3.598,15.47 -7.205,30.947 -10.802,46.411 4.137,0.965 6.216,1.43 10.372,2.321 2.89,0.623 5.581,0.029 8.03,-1.751 C 5.502,36.881 7.014,34.45 7.611,31.398 9.525,21.621 10.479,16.735 12.396,6.97 z"
             style="fill:none;stroke:#ffffff;stroke-opacity:1;stroke-width:1.605;stroke-linecap:butt;stroke-linejoin:miter;stroke-miterlimit:4;stroke-dasharray:none"
             id="path150" /></g><g
           id="g152"
           transform="translate(222.7017,328.7393)"><path
             d="m 0,0 c 0.508,-3.123 -0.028,-5.922 -1.567,-8.4 -1.54,-2.476 -3.629,-3.948 -6.296,-4.426 -1.558,-0.282 -2.852,-0.326 -3.892,-0.134 -0.144,2.695 -0.213,4.037 -0.347,6.735 0.727,-0.02 1.357,0.045 1.841,0.107 0.298,0.048 0.748,0.128 1.306,0.276 0.981,0.255 1.759,0.817 2.321,1.687 0.56,0.866 0.742,1.863 0.548,2.982 -2.514,14.545 -3.773,21.817 -6.286,36.359 2.605,0.451 3.904,0.665 6.516,1.088 C -3.519,21.763 -2.339,14.512 0,0"
             style="fill:#ffffff;fill-opacity:1;fill-rule:nonzero;stroke:none"
             id="path154" /></g><g
           id="g156"
           transform="translate(222.7017,328.7393)"><path
             d="m 0,0 c 0.508,-3.123 -0.028,-5.922 -1.567,-8.4 -1.54,-2.476 -3.629,-3.948 -6.296,-4.426 -1.558,-0.282 -2.852,-0.326 -3.892,-0.134 -0.144,2.695 -0.213,4.037 -0.347,6.735 0.727,-0.02 1.357,0.045 1.841,0.107 0.298,0.048 0.748,0.128 1.306,0.276 0.981,0.255 1.759,0.817 2.321,1.687 0.56,0.866 0.742,1.863 0.548,2.982 -2.514,14.545 -3.773,21.817 -6.286,36.359 2.605,0.451 3.904,0.665 6.516,1.088 C -3.519,21.763 -2.339,14.512 0,0 z"
             style="fill:none;stroke:#ffffff;stroke-opacity:1;stroke-width:1.605;stroke-linecap:butt;stroke-linejoin:miter;stroke-miterlimit:4;stroke-dasharray:none"
             id="path158" /></g><g
           id="g160"
           transform="translate(236.1436,356.8896)"><path
             d="m 0,0 c 0,-7.568 0.018,-11.351 0.082,-18.922 1.878,0.252 2.821,0.377 4.7,0.614 C 2.897,-10.979 1.944,-7.313 0,0 m 0.046,-25.983 c -0.013,-4.42 -0.018,-6.631 -0.013,-11.048 -2.552,-0.36 -3.834,-0.546 -6.392,-0.933 -0.005,16.065 0.127,32.11 0.384,48.169 3.675,0.508 5.517,0.748 9.189,1.205 4.346,-15.462 8.561,-30.944 12.653,-46.471 -2.592,-0.282 -3.886,-0.43 -6.472,-0.748 -1.111,4.281 -1.669,6.417 -2.801,10.689 -2.615,-0.329 -3.933,-0.508 -6.548,-0.863"
             style="fill:#ffffff;fill-opacity:1;fill-rule:nonzero;stroke:none"
             id="path162" /></g><g
           id="g164"
           transform="translate(236.1436,356.8896)"><path
             d="m 0,0 c 0,-7.568 0.018,-11.351 0.082,-18.922 1.878,0.252 2.821,0.377 4.7,0.614 C 2.897,-10.979 1.944,-7.313 0,0 z m 0.046,-25.983 c -0.013,-4.42 -0.018,-6.631 -0.013,-11.048 -2.552,-0.36 -3.834,-0.546 -6.392,-0.933 -0.005,16.065 0.127,32.11 0.384,48.169 3.675,0.508 5.517,0.748 9.189,1.205 4.346,-15.462 8.561,-30.944 12.653,-46.471 -2.592,-0.282 -3.886,-0.43 -6.472,-0.748 -1.111,4.281 -1.669,6.417 -2.801,10.689 -2.615,-0.329 -3.933,-0.508 -6.548,-0.863 z"
             style="fill:none;stroke:#ffffff;stroke-opacity:1;stroke-width:1.605;stroke-linecap:butt;stroke-linejoin:miter;stroke-miterlimit:4;stroke-dasharray:none"
             id="path166" /></g><g
           id="g168"
           transform="translate(285.354,360.6748)"><path
             d="m 0,0 c -0.058,1.243 -0.454,2.223 -1.178,2.953 -0.726,0.724 -1.663,1.06 -2.811,0.997 -1.6,-0.083 -2.397,-0.127 -3.996,-0.225 0.361,-6.082 0.541,-9.124 0.902,-15.209 1.559,0.094 2.338,0.136 3.898,0.219 1.022,0.053 1.88,0.502 2.559,1.348 0.682,0.846 1,1.834 0.948,2.974 C 0.19,-4.171 0.126,-2.775 0,0 M -4.547,11.267 C -1.282,11.439 1.408,10.444 3.398,8.325 5.279,6.331 6.255,3.647 6.371,0.377 6.474,-2.387 6.518,-3.767 6.618,-6.527 6.726,-9.668 5.835,-12.39 3.967,-14.699 c -1.87,-2.307 -4.175,-3.527 -6.944,-3.675 -1.472,-0.074 -2.209,-0.115 -3.679,-0.207 0.424,-7.157 0.642,-10.736 1.067,-17.902 -2.47,-0.149 -3.712,-0.232 -6.184,-0.404 -1.121,15.836 -2.243,31.665 -3.37,47.501 4.239,0.297 6.357,0.43 10.596,0.653"
             style="fill:#ffffff;fill-opacity:1;fill-rule:nonzero;stroke:none"
             id="path170" /></g><g
           id="g172"
           transform="translate(285.354,360.6748)"><path
             d="m 0,0 c -0.058,1.243 -0.454,2.223 -1.178,2.953 -0.726,0.724 -1.663,1.06 -2.811,0.997 -1.6,-0.083 -2.397,-0.127 -3.996,-0.225 0.361,-6.082 0.541,-9.124 0.902,-15.209 1.559,0.094 2.338,0.136 3.898,0.219 1.022,0.053 1.88,0.502 2.559,1.348 0.682,0.846 1,1.834 0.948,2.974 C 0.19,-4.171 0.126,-2.775 0,0 z M -4.547,11.267 C -1.282,11.439 1.408,10.444 3.398,8.325 5.279,6.331 6.255,3.647 6.371,0.377 6.474,-2.387 6.518,-3.767 6.618,-6.527 6.726,-9.668 5.835,-12.39 3.967,-14.699 c -1.87,-2.307 -4.175,-3.527 -6.944,-3.675 -1.472,-0.074 -2.209,-0.115 -3.679,-0.207 0.424,-7.157 0.642,-10.736 1.067,-17.902 -2.47,-0.149 -3.712,-0.232 -6.184,-0.404 -1.121,15.836 -2.243,31.665 -3.37,47.501 4.239,0.297 6.357,0.43 10.596,0.653 z"
             style="fill:none;stroke:#ffffff;stroke-opacity:1;stroke-width:1.605;stroke-linecap:butt;stroke-linejoin:miter;stroke-miterlimit:4;stroke-dasharray:none"
             id="path174" /></g><g
           id="g176"
           transform="translate(299.1118,325.0078)"><path
             d="m 0,0 c -0.392,15.877 -0.776,31.758 -1.168,47.644 7.652,0.183 11.481,0.216 19.133,0.16 -0.023,-2.885 -0.03,-4.331 -0.053,-7.222 -4.901,0.035 -7.357,0.029 -12.262,-0.039 0.07,-5.197 0.105,-7.797 0.172,-12.994 3.503,0.047 5.263,0.064 8.768,0.053 C 14.584,24.717 14.584,23.269 14.573,20.383 11.112,20.386 9.382,20.377 5.921,20.33 5.988,15.133 6.024,12.535 6.092,7.335 10.727,7.4 13.044,7.406 17.668,7.37 17.651,4.485 17.639,3.043 17.621,0.151 10.572,0.202 7.048,0.172 0,0"
             style="fill:#ffffff;fill-opacity:1;fill-rule:nonzero;stroke:none"
             id="path178" /></g><g
           id="g180"
           transform="translate(299.1118,325.0078)"><path
             d="m 0,0 c -0.392,15.877 -0.776,31.758 -1.168,47.644 7.652,0.183 11.481,0.216 19.133,0.16 -0.023,-2.885 -0.03,-4.331 -0.053,-7.222 -4.901,0.035 -7.357,0.029 -12.262,-0.039 0.07,-5.197 0.105,-7.797 0.172,-12.994 3.503,0.047 5.263,0.064 8.768,0.053 C 14.584,24.717 14.584,23.269 14.573,20.383 11.112,20.386 9.382,20.377 5.921,20.33 5.988,15.133 6.024,12.535 6.092,7.335 10.727,7.4 13.044,7.406 17.668,7.37 17.651,4.485 17.639,3.043 17.621,0.151 10.572,0.202 7.048,0.172 0,0 z"
             style="fill:none;stroke:#ffffff;stroke-opacity:1;stroke-width:1.605;stroke-linecap:butt;stroke-linejoin:miter;stroke-miterlimit:4;stroke-dasharray:none"
             id="path182" /></g><g
           id="g184"
           transform="translate(330.499,372.5684)"><path
             d="m 0,0 c 3.194,-12.912 4.688,-19.383 7.492,-32.336 0.576,12.802 0.855,19.207 1.425,31.997 2.689,-0.115 4.031,-0.183 6.72,-0.332 -0.884,-15.856 -1.769,-31.719 -2.654,-47.581 -2.656,0.151 -3.983,0.208 -6.639,0.332 -2.87,12.343 -4.403,18.504 -7.65,30.805 -0.343,-12.197 -0.522,-18.302 -0.86,-30.502 -2.479,0.071 -3.714,0.104 -6.192,0.142 0.27,15.881 0.54,31.764 0.816,47.647 C -4.523,0.118 -3.016,0.086 0,0"
             style="fill:#ffffff;fill-opacity:1;fill-rule:nonzero;stroke:none"
             id="path186" /></g><g
           id="g188"
           transform="translate(330.499,372.5684)"><path
             d="m 0,0 c 3.194,-12.912 4.688,-19.383 7.492,-32.336 0.576,12.802 0.855,19.207 1.425,31.997 2.689,-0.115 4.031,-0.183 6.72,-0.332 -0.884,-15.856 -1.769,-31.719 -2.654,-47.581 -2.656,0.151 -3.983,0.208 -6.639,0.332 -2.87,12.343 -4.403,18.504 -7.65,30.805 -0.343,-12.197 -0.522,-18.302 -0.86,-30.502 -2.479,0.071 -3.714,0.104 -6.192,0.142 0.27,15.881 0.54,31.764 0.816,47.647 C -4.523,0.118 -3.016,0.086 0,0 z"
             style="fill:none;stroke:#ffffff;stroke-opacity:1;stroke-width:1.605;stroke-linecap:butt;stroke-linejoin:miter;stroke-miterlimit:4;stroke-dasharray:none"
             id="path190" /></g><g
           id="g192"
           transform="translate(356.8994,330.5381)"><path
             d="m 0,0 c 1.508,-0.119 2.265,-0.185 3.77,-0.314 0.997,-0.09 1.87,0.246 2.629,1.011 0.757,0.757 1.191,1.683 1.291,2.799 0.917,9.929 1.374,14.895 2.289,24.82 0.107,1.138 -0.166,2.138 -0.826,3.011 C 8.489,32.199 7.64,32.689 6.616,32.775 5.013,32.918 4.221,32.977 2.624,33.102 1.573,19.863 1.044,13.238 0,0 m 13.832,3.042 c -0.321,-3.119 -1.561,-5.684 -3.686,-7.714 -2.121,-2.036 -4.5,-2.938 -7.178,-2.707 -3.883,0.326 -5.826,0.481 -9.706,0.748 1.074,15.844 2.149,31.692 3.223,47.539 4.221,-0.285 6.331,-0.445 10.543,-0.807 2.936,-0.249 5.326,-1.597 7.136,-4.013 1.816,-2.423 2.547,-5.18 2.227,-8.288 C 15.369,17.898 14.853,12.947 13.832,3.042"
             style="fill:#ffffff;fill-opacity:1;fill-rule:nonzero;stroke:none"
             id="path194" /></g><g
           id="g196"
           transform="translate(356.8994,330.5381)"><path
             d="m 0,0 c 1.508,-0.119 2.265,-0.185 3.77,-0.314 0.997,-0.09 1.87,0.246 2.629,1.011 0.757,0.757 1.191,1.683 1.291,2.799 0.917,9.929 1.374,14.895 2.289,24.82 0.107,1.138 -0.166,2.138 -0.826,3.011 C 8.489,32.199 7.64,32.689 6.616,32.775 5.013,32.918 4.221,32.977 2.624,33.102 1.573,19.863 1.044,13.238 0,0 z m 13.832,3.042 c -0.321,-3.119 -1.561,-5.684 -3.686,-7.714 -2.121,-2.036 -4.5,-2.938 -7.178,-2.707 -3.883,0.326 -5.826,0.481 -9.706,0.748 1.074,15.844 2.149,31.692 3.223,47.539 4.221,-0.285 6.331,-0.445 10.543,-0.807 2.936,-0.249 5.326,-1.597 7.136,-4.013 1.816,-2.423 2.547,-5.18 2.227,-8.288 C 15.369,17.898 14.853,12.947 13.832,3.042 z"
             style="fill:none;stroke:#ffffff;stroke-opacity:1;stroke-width:1.605;stroke-linecap:butt;stroke-linejoin:miter;stroke-miterlimit:4;stroke-dasharray:none"
             id="path198" /></g><g
           id="g200"
           transform="translate(390.9512,356.6699)"><path
             d="m 0,0 c -1.966,-7.308 -2.934,-10.977 -4.836,-18.302 1.879,-0.24 2.817,-0.368 4.699,-0.626 C -0.054,-11.362 -0.024,-7.574 0,0 m -6.709,-25.102 c -1.169,-4.265 -1.745,-6.406 -2.882,-10.671 -2.561,0.315 -3.844,0.472 -6.414,0.766 4.173,15.512 8.474,30.968 12.894,46.411 3.674,-0.46 5.515,-0.706 9.186,-1.231 0.173,-16.05 0.217,-32.096 0.14,-48.152 -2.582,0.395 -3.87,0.585 -6.459,0.954 0.048,4.417 0.059,6.63 0.083,11.045 -2.624,0.365 -3.933,0.537 -6.548,0.878"
             style="fill:#ffffff;fill-opacity:1;fill-rule:nonzero;stroke:none"
             id="path202" /></g><g
           id="g204"
           transform="translate(390.9512,356.6699)"><path
             d="m 0,0 c -1.966,-7.308 -2.934,-10.977 -4.836,-18.302 1.879,-0.24 2.817,-0.368 4.699,-0.626 C -0.054,-11.362 -0.024,-7.574 0,0 z m -6.709,-25.102 c -1.169,-4.265 -1.745,-6.406 -2.882,-10.671 -2.561,0.315 -3.844,0.472 -6.414,0.766 4.173,15.512 8.474,30.968 12.894,46.411 3.674,-0.46 5.515,-0.706 9.186,-1.231 0.173,-16.05 0.217,-32.096 0.14,-48.152 -2.582,0.395 -3.87,0.585 -6.459,0.954 0.048,4.417 0.059,6.63 0.083,11.045 -2.624,0.365 -3.933,0.537 -6.548,0.878 z"
             style="fill:none;stroke:#ffffff;stroke-opacity:1;stroke-width:1.605;stroke-linecap:butt;stroke-linejoin:miter;stroke-miterlimit:4;stroke-dasharray:none"
             id="path206" /></g><g
           id="g208"
           transform="translate(426.5879,320.5879)"><path
             d="M 0,0 C 1.029,-0.213 1.546,-0.32 2.576,-0.546 4.669,-0.988 6.375,-0.064 7.726,2.191 8.191,2.972 8.548,3.903 8.791,4.99 9.367,7.587 9.338,9.576 8.714,10.956 8.15,12.218 7.094,13.031 5.529,13.36 4.479,13.583 3.944,13.696 2.885,13.912 1.73,8.348 1.157,5.563 0,0 m 4.285,20.645 c 1.069,-0.22 1.607,-0.33 2.678,-0.555 1.982,-0.422 3.55,0.347 4.689,2.333 0.428,0.726 0.767,1.682 1.019,2.843 0.425,1.929 0.317,3.485 -0.339,4.664 -0.605,1.091 -1.552,1.774 -2.84,2.05 C 8.394,32.218 7.848,32.324 6.755,32.557 5.764,27.789 5.271,25.408 4.285,20.645 M -8.032,-5.64 c 3.042,15.596 6.085,31.188 9.118,46.781 3.972,-0.779 5.957,-1.182 9.917,-2.025 2.612,-0.553 4.806,-1.81 6.565,-3.731 1.505,-1.636 2.336,-3.853 2.502,-6.611 0.084,-1.471 -0.094,-3.164 -0.537,-5.063 -0.72,-3.114 -2.068,-5.423 -3.992,-6.958 -0.819,-0.644 -2.636,-1.312 -2.636,-1.312 -0.029,-0.136 2.221,-2.369 2.779,-4.334 0.379,-1.33 0.493,-2.986 0.356,-4.92 C 15.975,5.191 15.797,4.094 15.523,2.909 14.835,-0.029 13.751,-2.398 12.306,-4.221 11.181,-5.646 9.818,-6.684 8.225,-7.343 6.432,-8.079 4.784,-8.284 3.259,-7.954 -1.247,-6.98 -3.506,-6.515 -8.032,-5.64"
             style="fill:#ffffff;fill-opacity:1;fill-rule:nonzero;stroke:none"
             id="path210" /></g><g
           id="g212"
           transform="translate(426.5879,320.5879)"><path
             d="M 0,0 C 1.029,-0.213 1.546,-0.32 2.576,-0.546 4.669,-0.988 6.375,-0.064 7.726,2.191 8.191,2.972 8.548,3.903 8.791,4.99 9.367,7.587 9.338,9.576 8.714,10.956 8.15,12.218 7.094,13.031 5.529,13.36 4.479,13.583 3.944,13.696 2.885,13.912 1.73,8.348 1.157,5.563 0,0 z m 4.285,20.645 c 1.069,-0.22 1.607,-0.33 2.678,-0.555 1.982,-0.422 3.55,0.347 4.689,2.333 0.428,0.726 0.767,1.682 1.019,2.843 0.425,1.929 0.317,3.485 -0.339,4.664 -0.605,1.091 -1.552,1.774 -2.84,2.05 C 8.394,32.218 7.848,32.324 6.755,32.557 5.764,27.789 5.271,25.408 4.285,20.645 z M -8.032,-5.64 c 3.042,15.596 6.085,31.188 9.118,46.781 3.972,-0.779 5.957,-1.182 9.917,-2.025 2.612,-0.553 4.806,-1.81 6.565,-3.731 1.505,-1.636 2.336,-3.853 2.502,-6.611 0.084,-1.471 -0.094,-3.164 -0.537,-5.063 -0.72,-3.114 -2.068,-5.423 -3.992,-6.958 -0.819,-0.644 -2.636,-1.312 -2.636,-1.312 -0.029,-0.136 2.221,-2.369 2.779,-4.334 0.379,-1.33 0.493,-2.986 0.356,-4.92 C 15.975,5.191 15.797,4.094 15.523,2.909 14.835,-0.029 13.751,-2.398 12.306,-4.221 11.181,-5.646 9.818,-6.684 8.225,-7.343 6.432,-8.079 4.784,-8.284 3.259,-7.954 -1.247,-6.98 -3.506,-6.515 -8.032,-5.64 z"
             style="fill:none;stroke:#ffffff;stroke-opacity:1;stroke-width:1.605;stroke-linecap:butt;stroke-linejoin:miter;stroke-miterlimit:4;stroke-dasharray:none"
             id="path214" /></g><g
           id="g216"
           transform="translate(464.7646,341.9512)"><path
             d="m 0,0 c -2.891,-7.002 -4.315,-10.511 -7.147,-17.521 1.846,-0.491 2.766,-0.737 4.613,-1.239 C -1.487,-11.262 -0.982,-7.51 0,0 m -9.875,-24.04 c -1.695,-4.085 -2.544,-6.127 -4.227,-10.211 -2.514,0.642 -3.776,0.965 -6.295,1.579 6.128,14.848 12.365,29.635 18.735,44.387 C 1.95,10.777 3.752,10.297 7.347,9.305 5.491,-6.641 3.509,-22.563 1.398,-38.483 c -2.523,0.729 -3.79,1.086 -6.325,1.786 0.606,4.37 0.9,6.56 1.472,10.941 -2.559,0.7 -3.847,1.039 -6.42,1.716"
             style="fill:#ffffff;fill-opacity:1;fill-rule:nonzero;stroke:none"
             id="path218" /></g><g
           id="g220"
           transform="translate(464.7646,341.9512)"><path
             d="m 0,0 c -2.891,-7.002 -4.315,-10.511 -7.147,-17.521 1.846,-0.491 2.766,-0.737 4.613,-1.239 C -1.487,-11.262 -0.982,-7.51 0,0 z m -9.875,-24.04 c -1.695,-4.085 -2.544,-6.127 -4.227,-10.211 -2.514,0.642 -3.776,0.965 -6.295,1.579 6.128,14.848 12.365,29.635 18.735,44.387 C 1.95,10.777 3.752,10.297 7.347,9.305 5.491,-6.641 3.509,-22.563 1.398,-38.483 c -2.523,0.729 -3.79,1.086 -6.325,1.786 0.606,4.37 0.9,6.56 1.472,10.941 -2.559,0.7 -3.847,1.039 -6.42,1.716 z"
             style="fill:none;stroke:#ffffff;stroke-opacity:1;stroke-width:1.605;stroke-linecap:butt;stroke-linejoin:miter;stroke-miterlimit:4;stroke-dasharray:none"
             id="path222" /></g><g
           id="g224"
           transform="translate(358.1455,510.5542)"><path
             d="m 0,0 -9.213,-9.135 1.074,-1.08 9.216,9.131 L 0,0 z m 6.732,-6.8 -9.208,-9.135 1.022,-1.03 9.216,9.131 -1.03,1.034 z m -4.713,4.759 -9.217,-9.128 3.773,-3.806 9.216,9.128 -3.772,3.806 z m -8.181,8.151 -0.822,-0.809 -3.577,3.634 -7.462,-7.406 3.594,-3.608 -0.946,-0.944 3.728,-3.761 9.219,9.131 -3.734,3.763 z M 122.722,-123.733 10.314,-10.32 l -9.21,-9.135 112.402,-113.408 15.928,-6.299 -6.712,15.429 z"
             style="fill:#ffffff;fill-opacity:1;fill-rule:nonzero;stroke:none"
             id="path226" /></g><g
           id="g228"
           transform="translate(155.2632,435.4121)"><path
             d="m 0,0 c 1.027,0.798 3.075,1.935 4.774,2.844 1.709,0.908 3.415,1.709 4.215,2.614 0.801,0.911 2.273,2.509 3.641,3.186 1.361,0.685 3.868,2.507 3.868,3.307 0,0.793 -2.961,1.015 -5.46,1.015 -2.503,0 -5.578,-0.338 -7.623,-0.682 -2.048,-0.333 -7.056,-1.477 -9.44,-1.931 -2.393,-0.455 -4.554,-0.564 -5.916,-0.226 -0.334,0.08 -0.701,0.207 -1.07,0.358 -0.03,-0.839 -0.052,-1.678 -0.052,-2.524 0,-2.915 0.184,-5.776 0.54,-8.597 2.145,-0.071 5.129,-0.222 6.382,-0.498 C -4.093,-1.594 -1.025,-0.796 0,0 m -4.093,16.267 c 1.359,0.57 3.413,1.707 6.713,1.707 3.3,0 7.732,0.341 11.941,0.116 4.207,-0.229 12.404,-0.339 14.678,-0.46 2.275,-0.108 5.006,-0.569 6.144,0.344 1.134,0.908 -0.574,4.555 -1.368,6.031 -0.794,1.477 -3.524,4.094 -5.002,4.892 -1.482,0.794 -3.645,1.141 -5.461,1.708 -1.822,0.57 -4.439,1.249 -6.6,0.678 -2.162,-0.568 -5.69,-1.362 -10.122,-1.245 -4.434,0.107 -9.448,1.245 -11.493,2.501 -1.092,0.665 -2.3,1.199 -3.204,1.551 -2.172,-5.233 -3.706,-10.775 -4.522,-16.552 1.097,-0.143 2.404,-0.349 3.057,-0.585 1.252,-0.456 3.875,-1.248 5.239,-0.686 m 8.301,17.525 c 2.045,0.112 5.345,1.132 7.512,2.155 2.163,1.028 3.865,2.162 3.865,2.162 0,0 -1.134,3.304 -1.48,5.466 -0.337,2.161 -0.452,6.14 -1.701,9.439 -1.252,3.299 -0.684,2.731 -2.39,4.101 C 9.6,57.441 9.151,57.759 8.715,58.051 2.345,52.043 -2.888,44.879 -6.624,36.911 c 1.099,-0.102 2.617,-0.372 3.89,-1.073 2.278,-1.255 4.895,-2.162 6.942,-2.046 m 13.198,16.153 c 0.462,-2.731 1.707,-6.032 2.962,-7.624 1.253,-1.592 3.415,-2.729 5.344,-3.298 1.939,-0.565 3.301,-1.248 4.895,-2.278 1.593,-1.022 4.552,-2.841 5.8,-3.409 1.253,-0.574 2.048,0 2.392,0.456 0.337,0.452 -0.571,3.639 -0.799,4.775 -0.226,1.139 -1.708,5.462 -2.272,8.647 -0.569,3.186 -0.799,5.122 -1.483,5.916 -0.679,0.792 -2.731,2.162 -3.293,3.639 -0.571,1.482 -0.571,2.96 -1.253,5.576 -0.588,2.236 -2.082,5.801 -2.578,8.278 -5.012,-2.374 -9.69,-5.306 -13.969,-8.716 0.783,-1.845 1.857,-4.43 2.209,-5.478 0.568,-1.707 1.591,-3.759 2.045,-6.484 M 129.354,9.853 c -1.73,0.102 -3.689,0.212 -4.553,0.274 -1.699,0.116 -6.484,2.047 -8.076,2.617 -1.593,0.569 -6.594,1.592 -9.554,1.478 -2.956,-0.114 -7.963,-0.686 -9.556,-1.478 C 96.021,11.951 92.378,10.353 90.217,9.106 88.062,7.854 86.014,6.26 82.708,5.806 79.414,5.352 76.453,4.781 75.431,3.983 74.405,3.188 72.47,1.828 72.246,-1.024 c -0.23,-2.841 -1.478,-11.603 -0.909,-21.386 0.563,-9.783 2.387,-14.331 3.864,-16.273 1.482,-1.928 4.323,-6.251 7.053,-7.729 2.702,-1.466 8.405,-6.043 11.394,-8.124 22.048,11.93 35.735,35.895 35.735,62.497 0,0.632 -0.005,1.264 -0.029,1.892 M 37.091,4.321 C 32.084,6.144 25.712,6.488 21.385,5.574 17.067,4.666 15.017,3.301 13.991,2.051 12.974,0.798 11.72,-0.796 8.989,-2.043 6.253,-3.295 2.845,-4.44 0.797,-5.002 c -2.051,-0.576 -6.822,-1.145 -9.215,-1.256 -1.006,-0.044 -2.132,-0.154 -3.097,-0.263 4.782,-22.093 20.282,-40.318 40.936,-49.229 1.41,1.03 2.99,2.359 4.027,3.758 2.273,3.072 5.574,8.875 6.144,11.036 0.57,2.161 2.616,9.106 3.415,11.151 0.792,2.045 2.615,7.056 2.495,10.802 -0.106,3.761 -1.358,12.179 -1.928,14.794 -0.567,2.615 -1.481,6.714 -6.483,8.53 m 34.355,33.562 c 1.706,2.049 4.547,8.537 5.007,9.901 0.454,1.368 0.23,3.299 0.23,5.008 0,1.708 -0.344,4.545 -1.252,5.229 -0.915,0.68 -4.892,3.531 -5.462,6.372 -0.576,2.845 1.023,8.985 1.593,10.807 0.098,0.312 0.218,0.671 0.355,1.063 -1.684,0.322 -3.385,0.588 -5.109,0.794 -0.322,-2.667 -0.736,-5.996 -0.936,-6.98 -0.34,-1.702 -0.571,-2.269 -1.249,-3.293 -0.685,-1.024 -0.8,-2.391 -1.14,-3.307 -0.345,-0.908 -1.592,-5.226 -1.592,-5.684 0,-0.456 0.454,-6.147 0.454,-6.71 0,-0.57 1.03,-2.391 1.478,-3.184 0.456,-0.799 2.163,-1.708 2.615,-3.754 0.46,-2.053 1.479,-5.808 2.163,-6.714 0.69,-0.91 1.136,-1.593 2.845,0.452 M 34.59,60.748 c 0.334,-1.248 1.702,-3.182 2.954,-3.182 1.255,0 3.071,1.255 2.962,2.389 -0.115,1.137 0.793,3.866 1.363,5.236 0.568,1.363 3.075,5.802 4.439,8.416 0.55,1.069 1.067,2.226 1.493,3.226 -5.874,-0.84 -11.515,-2.381 -16.833,-4.524 0.464,-1.512 1.134,-3.789 1.345,-5.071 0.341,-2.047 1.932,-5.238 2.277,-6.49 M 79.07,14.675 c 2.73,0 5.233,0.8 6.714,1.939 1.478,1.137 1.817,2.501 2.501,3.298 0.684,0.794 2.616,1.362 3.977,1.477 1.37,0.116 8.083,0.8 9.562,1.026 1.477,0.228 3.184,1.022 4.099,2.16 0.903,1.139 1.815,4.322 2.839,5.238 1.023,0.908 4.33,2.046 5.576,2.955 1.248,0.908 4.208,2.384 6.141,2.501 1.034,0.062 2.225,0.155 3.114,0.222 -2.379,5.393 -5.436,10.429 -9.065,15.018 -3.639,-2.749 -9.669,-7.284 -11.681,-8.757 -2.961,-2.16 -8.303,-4.547 -10.692,-5.575 -2.394,-1.025 -6.487,-3.294 -7.508,-3.984 -1.025,-0.679 -2.847,-2.042 -4.779,-3.065 -1.932,-1.029 -3.875,-2.16 -4.891,-3.186 -1.031,-1.027 -1.253,-2.275 -1.477,-2.961 -0.232,-0.676 -1.824,-2.959 -2.623,-4.206 -0.794,-1.253 -1.13,-2.961 0.346,-3.642 1.475,-0.681 5.116,-0.458 7.847,-0.458 M 81.8,59.27 c 2.386,-0.34 3.53,-0.34 4.094,-0.223 0.568,0.113 1.022,1.021 1.368,1.935 0.235,0.644 2.479,5.791 3.765,8.745 -4.339,2.208 -8.946,3.997 -13.752,5.301 -0.374,-1.576 -0.724,-3.203 -0.822,-4.035 -0.228,-1.932 -1.022,-6.716 0.454,-8.193 1.478,-1.479 2.507,-3.186 4.893,-3.53 M 57.793,44.823 c -0.793,1.597 -2.386,5.69 -2.956,7.853 -0.568,2.156 -0.344,4.546 0.792,7.053 1.142,2.501 2.849,6.371 3.642,8.533 0.797,2.161 1.253,5.684 1.143,7.394 -0.036,0.51 -0.142,1.189 -0.276,1.879 -0.654,0.021 -1.316,0.034 -1.978,0.034 -1.115,0 -2.223,-0.034 -3.327,-0.08 -0.23,-0.915 -0.559,-1.875 -1.019,-2.513 -1.144,-1.598 -2.046,-3.415 -2.392,-4.553 -0.339,-1.139 -1.931,-2.731 -2.84,-3.984 -0.908,-1.248 -2.846,-4.887 -3.304,-6.484 -0.456,-1.588 -0.334,-5.003 -0.563,-6.601 -0.231,-1.588 -0.46,-6.14 -0.115,-7.618 0.344,-1.477 3.07,-5.46 3.408,-7.627 0.345,-2.156 1.369,-3.526 0.685,-8.302 -0.685,-4.778 -0.909,-7.847 0.344,-8.647 1.253,-0.792 5.571,0.685 7.618,2.73 2.053,2.048 5.122,6.599 5.92,7.969 0.794,1.364 1.134,4.094 -0.114,6.25 -1.253,2.167 -3.875,5.121 -4.668,6.714 M 113.2,23.553 c -1.367,-0.572 -2.047,-1.819 -0.684,-2.387 1.37,-0.57 4.323,-2.506 5.237,-3.076 0.909,-0.568 2.731,-2.161 5.572,-2.385 2.754,-0.223 4.123,-0.765 5.755,-1.311 -0.53,5.616 -1.738,11.044 -3.541,16.195 -2.352,-1.172 -5.434,-2.72 -6.877,-3.507 -2.506,-1.368 -4.098,-2.961 -5.462,-3.529 M 84.87,47.328 c -0.909,-1.367 -1.248,-3.189 -1.137,-4.552 0.114,-1.363 1.021,-2.272 3.415,-2.162 2.385,0.115 4.776,1.254 5.915,2.279 1.137,1.02 4.892,4.435 5.685,5.006 0.799,0.563 2.052,1.022 4.099,2.046 1.339,0.672 5.231,3.351 7.75,5.116 -4.411,4.681 -9.457,8.774 -15.022,12.135 -1.52,-3.263 -4.358,-9.281 -5.814,-11.797 -2.046,-3.522 -3.983,-6.707 -4.891,-8.071"
             style="fill:#ffffff;fill-opacity:1;fill-rule:nonzero;stroke:none"
             id="path230" /></g><g
           id="g232"
           transform="translate(137.377,206.3018)"><path
             d="m 0,0 c -0.521,1.004 -1.303,1.909 -2.345,2.716 -1.044,0.807 -2.216,1.458 -3.519,1.95 -1.303,0.49 -2.664,0.855 -4.081,1.096 -4.212,0.656 -8.142,2.087 -11.792,4.292 -0.313,0.175 -0.645,0.546 -1,1.113 -0.355,0.566 -0.532,1.113 -0.532,1.639 0,1.92 0.308,3.846 0.922,5.779 0.615,1.932 1.403,3.442 2.362,4.535 1.543,1.814 4.321,3.396 8.335,4.749 4.014,1.354 8.533,2.03 13.558,2.03 3.003,0 5.322,-0.24 6.959,-0.721 1.636,-0.481 2.455,-1.223 2.455,-2.226 0,-1.639 -0.214,-2.903 -0.641,-3.8 C 10.253,22.256 9.795,21.662 9.305,21.369 8.814,21.075 7.955,20.674 6.724,20.173 5.411,19.691 4.27,19.19 3.3,18.668 2.33,18.143 1.501,17.641 0.813,17.16 0.126,16.679 -0.302,16.438 -0.469,16.438 c -0.208,0 -0.312,0.089 -0.312,0.264 0,0.371 0.37,0.933 1.11,1.687 0.739,0.754 1.652,1.413 2.737,1.979 1.146,0.636 1.72,1.039 1.72,1.214 0,0.282 -0.637,0.425 -1.909,0.425 -3.857,0 -7.423,-0.36 -10.695,-1.08 -3.275,-0.722 -5.854,-1.672 -7.742,-2.85 -1.886,-1.179 -2.83,-2.381 -2.83,-3.603 0,-0.763 0.39,-1.303 1.172,-1.621 0.782,-0.318 2.509,-0.846 5.177,-1.588 2.668,-0.743 5.057,-1.594 7.163,-2.556 C -1.855,7.355 0.386,5.948 1.846,4.485 3.305,3.022 4.035,1.387 4.035,-0.427 4.035,-1.671 3.749,-2.921 3.174,-4.176 2.602,-5.432 1.761,-6.583 0.657,-7.631 -0.448,-8.679 -1.72,-9.543 -3.159,-10.22 c -1.23,-0.546 -2.778,-1.056 -4.645,-1.537 -1.865,-0.48 -3.888,-0.857 -6.067,-1.131 -2.179,-0.273 -4.258,-0.41 -6.239,-0.41 -3.65,0 -6.584,0.36 -8.804,1.081 -2.22,0.721 -3.332,1.814 -3.332,3.277 0,0.653 0.376,1.674 1.127,3.06 0.751,1.387 1.637,2.321 2.658,2.799 0.896,0.371 1.761,0.585 2.595,0.642 0.835,0.053 1.252,-0.051 1.252,-0.312 0,-0.065 -0.032,-0.131 -0.094,-0.196 -0.063,-0.066 -0.135,-0.122 -0.218,-0.166 -0.085,-0.042 -0.168,-0.086 -0.251,-0.131 -0.417,-0.175 -0.755,-0.309 -1.016,-0.409 -0.262,-0.099 -0.47,-0.197 -0.625,-0.294 -0.158,-0.099 -0.235,-0.235 -0.235,-0.41 0,-0.457 2.158,-0.689 6.474,-0.689 3.753,0 6.829,0.143 9.226,0.428 2.397,0.282 4.514,0.795 6.35,1.537 C -3.169,-2.339 -1.501,-1.312 0,0"
             style="fill:#008e66;fill-opacity:1;fill-rule:nonzero;stroke:none"
             id="path234" /></g><g
           id="g236"
           transform="translate(165.2114,207.0859)"><path
             d="m 0,0 0,-2.193 c -2.23,-2.292 -4.05,-4.074 -5.457,-5.337 -1.407,-1.268 -2.721,-2.25 -3.94,-2.949 -1.221,-0.7 -2.414,-1.047 -3.582,-1.047 -1.147,0 -2.199,0.475 -3.158,1.424 -0.96,0.951 -1.711,2.195 -2.253,3.732 -0.542,1.54 -0.813,3.173 -0.813,4.897 0,1.485 0.313,2.805 0.939,3.963 0.625,1.157 1.835,2.654 3.628,4.485 2.126,2.185 4.102,3.871 5.926,5.061 1.825,1.191 3.257,1.784 4.301,1.784 0.751,0 1.386,-0.273 1.908,-0.816 0.521,-0.547 0.781,-1.235 0.781,-2.064 0,-0.7 -0.343,-1.694 -1.031,-2.982 C -3.44,6.669 -4.212,5.554 -5.065,4.604 -5.922,3.653 -6.599,3.179 -7.099,3.179 c -0.543,0 -0.813,0.305 -0.813,0.917 0.021,0.172 0.036,0.339 0.046,0.49 0.011,0.151 0.016,0.306 0.016,0.46 0,0.261 -0.088,0.406 -0.265,0.439 -0.178,0.036 -0.392,-0.047 -0.641,-0.244 -2.085,-1.528 -3.515,-2.602 -4.285,-3.225 -0.772,-0.624 -1.382,-1.25 -1.83,-1.883 -0.448,-0.635 -0.672,-1.3 -0.672,-1.997 0,-1.291 0.396,-2.339 1.189,-3.147 0.791,-0.807 1.824,-1.211 3.095,-1.211 1.314,0 2.893,0.529 4.739,1.588 C -4.675,-3.574 -2.501,-2.03 0,0"
             style="fill:#008e66;fill-opacity:1;fill-rule:nonzero;stroke:none"
             id="path238" /></g><g
           id="g240"
           transform="translate(188.481,207.1514)"><path
             d="m 0,0 0,-2.063 c -1.813,-1.942 -3.382,-3.53 -4.706,-4.764 -1.326,-1.236 -2.482,-2.167 -3.473,-2.799 -0.99,-0.636 -1.828,-0.95 -2.517,-0.95 -1.627,0 -2.44,1.003 -2.44,3.013 0,1.615 0.506,3.487 1.517,5.616 1.012,2.128 2.466,4.633 4.363,7.515 -0.938,-0.547 -1.824,-1.172 -2.658,-1.881 -0.834,-0.71 -1.575,-1.456 -2.22,-2.23 -0.647,-0.774 -1.189,-1.434 -1.627,-1.979 -1.356,-1.595 -2.658,-3.227 -3.909,-4.899 -1.251,-1.668 -2.096,-2.754 -2.534,-3.256 -0.437,-0.504 -0.856,-0.754 -1.251,-0.754 -1.626,0 -2.44,2.096 -2.44,6.287 0,1.377 0.198,2.894 0.594,4.553 0.397,1.659 1.461,3.854 3.191,6.584 3.648,5.72 6.771,10.398 9.366,14.031 2.598,3.636 4.749,6.387 6.459,8.254 1.71,1.868 2.857,2.779 3.441,2.735 0.73,-0.066 1.319,-0.22 1.767,-0.457 0.448,-0.244 0.672,-0.514 0.672,-0.82 0,-0.547 -0.359,-1.449 -1.078,-2.704 -0.721,-1.256 -1.955,-3.215 -3.706,-5.877 -1.898,-2.817 -3.243,-4.797 -4.036,-5.945 -0.792,-1.147 -1.975,-2.772 -3.55,-4.88 -1.575,-2.104 -3.013,-3.983 -4.315,-5.631 -1.304,-1.65 -2.789,-3.434 -4.457,-5.354 l 0,-3.931 c 2.794,3.253 5.212,5.916 7.255,7.991 2.044,2.074 3.774,3.639 5.193,4.699 1.418,1.059 2.46,1.587 3.127,1.587 0.625,0 1.21,-0.385 1.752,-1.16 0.541,-0.778 0.813,-1.416 0.813,-1.918 0,-0.217 -0.105,-0.489 -0.313,-0.819 C -3.221,5.918 -4.416,4.363 -5.301,3.128 -6.188,1.896 -6.87,0.792 -7.35,-0.179 c -0.479,-0.973 -0.719,-1.807 -0.719,-2.505 0,-1.027 0.469,-1.541 1.408,-1.541 1,0 3.221,1.411 6.661,4.225"
             style="fill:#008e66;fill-opacity:1;fill-rule:nonzero;stroke:none"
             id="path242" /></g><g
           id="g244"
           transform="translate(202.1484,215.8301)"><path
             d="m 0,0 c -1.73,-1.092 -3.21,-2.078 -4.441,-2.962 -1.23,-0.885 -2.273,-1.781 -3.127,-2.686 -0.856,-0.906 -1.429,-1.817 -1.722,-2.734 -0.521,-2.446 -0.78,-3.767 -0.78,-3.963 0,-1.442 0.959,-2.161 2.876,-2.161 0.897,0 2.399,0.808 4.505,2.422 -0.355,1.027 -0.532,2.01 -0.532,2.947 0,1.375 0.27,2.78 0.814,4.209 C -1.866,-3.5 -1.063,-1.855 0,0 m 6.444,-8.611 0,-2.197 c -1.378,-1.308 -2.483,-2.181 -3.316,-2.618 -0.834,-0.438 -2.033,-0.611 -3.597,-0.525 -2.71,-3.362 -5.098,-5.043 -7.163,-5.043 -1.168,0 -2.23,0.404 -3.189,1.211 -0.959,0.807 -1.726,1.912 -2.299,3.31 -0.574,1.395 -0.86,2.956 -0.86,4.681 0,1.397 0.443,2.947 1.329,4.651 0.886,1.703 2.033,3.291 3.44,4.764 1.407,1.476 2.914,2.666 4.52,3.57 1.605,0.907 3.097,1.361 4.473,1.361 0.979,0 1.751,-0.161 2.313,-0.476 C 2.659,3.761 2.94,3.318 2.94,2.752 2.94,2.315 2.701,1.813 2.222,1.247 3.013,1.071 3.554,0.78 3.847,0.377 c 0.292,-0.403 0.437,-1.14 0.437,-2.211 0,-1.048 -0.234,-2.369 -0.703,-3.963 -0.469,-1.594 -1.11,-3.09 -1.923,-4.485 l 0.564,-0.591 0.468,0 c 0.354,0 0.704,0.093 1.048,0.279 0.343,0.185 0.652,0.383 0.922,0.591 0.272,0.205 0.865,0.671 1.784,1.392"
             style="fill:#008e66;fill-opacity:1;fill-rule:nonzero;stroke:none"
             id="path246" /></g><g
           id="g248"
           transform="translate(222.1973,215.8301)"><path
             d="m 0,0 c -1.73,-1.092 -3.21,-2.078 -4.44,-2.962 -1.231,-0.885 -2.274,-1.781 -3.127,-2.686 -0.857,-0.906 -1.43,-1.817 -1.722,-2.734 -0.521,-2.446 -0.781,-3.767 -0.781,-3.963 0,-1.442 0.959,-2.161 2.877,-2.161 0.896,0 2.398,0.808 4.504,2.422 -0.355,1.027 -0.532,2.01 -0.532,2.947 0,1.375 0.27,2.78 0.814,4.209 C -1.866,-3.5 -1.063,-1.855 0,0 m 6.444,-8.611 0,-2.197 c -1.377,-1.308 -2.483,-2.181 -3.316,-2.618 -0.834,-0.438 -2.033,-0.611 -3.597,-0.525 -2.71,-3.362 -5.098,-5.043 -7.162,-5.043 -1.168,0 -2.231,0.404 -3.19,1.211 -0.958,0.807 -1.726,1.912 -2.299,3.31 -0.574,1.395 -0.86,2.956 -0.86,4.681 0,1.397 0.443,2.947 1.329,4.651 0.886,1.703 2.033,3.291 3.441,4.764 1.406,1.476 2.913,2.666 4.519,3.57 1.606,0.907 3.097,1.361 4.473,1.361 0.979,0 1.751,-0.161 2.314,-0.476 C 2.66,3.761 2.94,3.318 2.94,2.752 2.94,2.315 2.701,1.813 2.222,1.247 3.013,1.071 3.554,0.78 3.847,0.377 c 0.292,-0.403 0.438,-1.14 0.438,-2.211 0,-1.048 -0.235,-2.369 -0.704,-3.963 -0.469,-1.594 -1.11,-3.09 -1.923,-4.485 l 0.564,-0.591 0.468,0 c 0.354,0 0.704,0.093 1.048,0.279 0.343,0.185 0.652,0.383 0.922,0.591 0.272,0.205 0.865,0.671 1.784,1.392"
             style="fill:#008e66;fill-opacity:1;fill-rule:nonzero;stroke:none"
             id="path250" /></g><g
           id="g252"
           transform="translate(234.1758,213.4082)"><path
             d="m 0,0 c 1.084,1.113 2.132,2.377 3.143,3.799 1.012,1.419 1.965,2.935 2.861,4.551 0.897,1.617 1.602,3.069 2.112,4.357 0.511,1.288 0.766,2.259 0.766,2.915 0,0.501 -0.166,0.751 -0.5,0.751 -0.125,0 -0.365,-0.119 -0.72,-0.359 C 6.391,14.921 4.963,12.787 3.377,9.611 1.792,6.435 0.667,3.229 0,0 m 9.351,-5.896 0,-2.424 c -4.357,-6.046 -7.901,-9.071 -10.634,-9.071 -1.479,0 -2.641,0.846 -3.486,2.537 -0.844,1.693 -1.267,3.916 -1.267,6.667 0,2.227 0.5,4.874 1.502,7.941 1,3.065 2.34,6.18 4.019,9.335 1.677,3.152 3.419,5.903 5.223,8.251 1.803,2.348 3.475,3.99 5.019,4.928 0.626,0.394 1.116,0.59 1.47,0.59 0.438,0 0.729,-0.202 0.876,-0.605 0.146,-0.404 0.218,-1.099 0.218,-2.081 0,-3.033 -1.178,-6.762 -3.533,-11.185 C 6.401,4.568 3.116,0.054 -1.094,-4.554 c -0.209,-1.134 -0.313,-2.009 -0.313,-2.618 0,-1.397 0.286,-2.534 0.861,-3.407 0.572,-0.872 1.369,-1.309 2.392,-1.309 0.521,0 1.083,0.21 1.689,0.638 0.604,0.425 1.239,0.956 1.907,1.588 0.668,0.633 1.971,1.888 3.909,3.766"
             style="fill:#008e66;fill-opacity:1;fill-rule:nonzero;stroke:none"
             id="path254" /></g><g
           id="g256"
           transform="translate(274.897,215.8301)"><path
             d="m 0,0 c -1.73,-1.092 -3.21,-2.078 -4.44,-2.962 -1.231,-0.885 -2.274,-1.781 -3.128,-2.686 -0.856,-0.906 -1.429,-1.817 -1.721,-2.734 -0.521,-2.446 -0.781,-3.767 -0.781,-3.963 0,-1.442 0.959,-2.161 2.876,-2.161 0.897,0 2.399,0.808 4.505,2.422 -0.355,1.027 -0.532,2.01 -0.532,2.947 0,1.375 0.27,2.78 0.814,4.209 C -1.866,-3.5 -1.063,-1.855 0,0 m 6.444,-8.611 0,-2.197 c -1.377,-1.308 -2.483,-2.181 -3.316,-2.618 -0.834,-0.438 -2.033,-0.611 -3.597,-0.525 -2.71,-3.362 -5.098,-5.043 -7.162,-5.043 -1.168,0 -2.231,0.404 -3.19,1.211 -0.959,0.807 -1.726,1.912 -2.299,3.31 -0.574,1.395 -0.86,2.956 -0.86,4.681 0,1.397 0.443,2.947 1.329,4.651 0.886,1.703 2.033,3.291 3.441,4.764 1.406,1.476 2.913,2.666 4.519,3.57 1.606,0.907 3.097,1.361 4.473,1.361 0.979,0 1.751,-0.161 2.313,-0.476 C 2.66,3.761 2.94,3.318 2.94,2.752 2.94,2.315 2.701,1.813 2.222,1.247 3.013,1.071 3.554,0.78 3.847,0.377 c 0.292,-0.403 0.438,-1.14 0.438,-2.211 0,-1.048 -0.235,-2.369 -0.704,-3.963 -0.469,-1.594 -1.11,-3.09 -1.923,-4.485 l 0.564,-0.591 0.468,0 c 0.354,0 0.704,0.093 1.048,0.279 0.343,0.185 0.652,0.383 0.922,0.591 0.272,0.205 0.865,0.671 1.784,1.392"
             style="fill:#008e66;fill-opacity:1;fill-rule:nonzero;stroke:none"
             id="path258" /></g><g
           id="g260"
           transform="translate(289.3462,198.377)"><path
             d="M 0,0 -0.062,0.686 C -0.646,0.62 -1.116,0.605 -1.469,0.638 -1.824,0.671 -2.236,0.763 -2.706,0.914 -3.174,1.068 -3.54,1.211 -3.799,1.342 -4.061,1.473 -4.347,1.603 -4.66,1.733 c -1.585,-4.06 -2.376,-7.432 -2.376,-10.119 0,-1.332 0.191,-2.466 0.577,-3.404 0.386,-0.94 0.84,-1.41 1.361,-1.41 0.542,0 1.224,0.502 2.048,1.508 0.824,1.004 1.538,2.487 2.143,4.453 C -0.303,-5.274 0,-2.861 0,0 m 9.352,8.774 0,-2.258 C 8.101,5.206 7.152,4.256 6.505,3.666 5.859,3.078 4.973,2.476 3.847,1.864 3.847,-0.122 3.753,-1.813 3.566,-3.212 3.378,-4.606 2.961,-6.076 2.315,-7.616 1.668,-9.154 0.668,-10.84 -0.687,-12.675 c -1.336,-1.813 -2.649,-3.205 -3.942,-4.176 -1.292,-0.97 -2.303,-1.458 -3.034,-1.458 -0.813,0 -1.564,0.699 -2.251,2.096 -0.689,1.399 -1.033,3.135 -1.033,5.207 0,1.988 0.323,4.084 0.971,6.289 0.645,2.205 1.645,5.055 3.002,8.546 -1.023,1.398 -1.533,2.784 -1.533,4.161 0,1.114 0.272,1.965 0.813,2.553 0.542,0.591 1.314,1.125 2.316,1.605 0.728,1.2 1.421,2.221 2.079,3.064 0.656,0.84 1.548,1.959 2.674,3.354 2.168,5.589 4.712,11.048 7.631,16.376 0.814,1.484 1.397,2.485 1.752,2.998 0.353,0.51 0.729,0.769 1.125,0.769 0.355,0 0.668,-0.273 0.939,-0.819 0.27,-0.546 0.407,-1.256 0.407,-2.128 0,-1.073 -0.11,-2.055 -0.33,-2.949 C 10.681,31.917 10.368,31.018 9.961,30.112 9.555,29.204 8.992,28.118 8.272,26.854 7.553,25.586 7.11,24.8 6.944,24.494 5.901,22.573 4.723,20.445 3.409,18.109 2.096,15.773 1.058,13.927 0.297,12.573 -0.464,11.22 -1.011,10.205 -1.345,9.528 -0.218,8.501 0.672,7.619 1.33,6.877 1.986,6.133 2.554,5.251 3.034,4.224 c 0.709,0.282 1.355,0.62 1.939,1.015 0.584,0.392 1.272,0.932 2.065,1.62 0.791,0.689 1.563,1.328 2.314,1.915"
             style="fill:#008e66;fill-opacity:1;fill-rule:nonzero;stroke:none"
             id="path262" /></g><g
           id="g264"
           transform="translate(360.998,238.1006)"><path
             d="m 0,0 0,-2.226 c 0,-0.918 -0.172,-1.496 -0.517,-1.736 -0.34,-0.241 -1.605,-0.885 -3.784,-1.933 -2.178,-1.047 -4.268,-2.282 -6.269,-3.701 0.772,1.178 1.472,2.051 2.111,2.62 0.635,0.568 1.496,1.277 2.579,2.129 -0.938,0.392 -2.241,0.591 -3.909,0.591 -2.586,0 -5.376,-0.538 -8.367,-1.606 -2.992,-1.072 -5.533,-2.348 -7.629,-3.832 -2.096,-1.484 -3.147,-2.731 -3.147,-3.734 0,-0.522 0.322,-0.956 0.956,-1.295 0.635,-0.338 1.657,-0.598 3.064,-0.783 1.406,-0.186 3.164,-0.311 5.271,-0.377 2.108,-0.065 4.702,-0.097 7.788,-0.097 2.25,0 3.7,-0.089 4.346,-0.265 0.648,-0.175 0.971,-0.578 0.971,-1.211 0,-0.808 -0.383,-1.731 -1.143,-2.767 -0.759,-1.038 -1.766,-1.653 -3.015,-1.851 -1.942,-0.327 -3.486,-0.606 -4.631,-0.834 -1.146,-0.23 -2.505,-0.618 -4.081,-1.164 -1.576,-0.543 -3.322,-1.33 -5.24,-2.357 -2.855,-1.573 -5.086,-3.167 -6.693,-4.782 -1.605,-1.614 -2.407,-3.045 -2.407,-4.289 0,-1.071 0.573,-1.905 1.722,-2.505 1.145,-0.602 2.79,-0.902 4.939,-0.902 7.402,0 14.939,3.484 22.612,10.448 0.041,-2.141 -0.184,-4.022 -0.671,-5.648 -0.493,-1.627 -1.484,-3.183 -2.986,-4.666 -1.253,-1.248 -3.081,-2.438 -5.491,-3.572 -2.407,-1.134 -5.034,-2.042 -7.881,-2.718 -2.847,-0.677 -5.518,-1.016 -8.023,-1.016 -2.897,0 -5.295,0.727 -7.192,2.179 -1.896,1.452 -2.846,3.378 -2.846,5.779 0,1.749 0.457,3.482 1.376,5.206 0.915,1.725 2.325,3.381 4.221,4.963 1.898,1.582 4.302,3.019 7.21,4.307 2.906,1.289 6.26,2.303 10.054,3.045 0.543,0.111 0.813,0.283 0.813,0.526 0,0.261 -0.317,0.419 -0.953,0.472 -0.637,0.056 -1.802,0.095 -3.502,0.116 -1.701,0.02 -3.197,0.097 -4.488,0.228 -1.294,0.131 -2.66,0.416 -4.1,0.852 -1.477,0.481 -2.621,1.321 -3.424,2.523 -0.802,1.199 -1.203,2.532 -1.203,3.995 0,1.876 0.644,3.767 1.938,5.666 1.295,1.901 3.117,3.614 5.474,5.142 2.357,1.528 5.207,2.755 8.554,3.684 3.349,0.928 7.011,1.391 10.994,1.391 2.292,0 3.895,-0.136 4.8,-0.409 0.908,-0.273 1.434,-0.632 1.582,-1.08 C -0.074,2.058 0,1.224 0,0"
             style="fill:#008e66;fill-opacity:1;fill-rule:nonzero;stroke:none"
             id="path266" /></g><g
           id="g268"
           transform="translate(365.376,207.1514)"><path
             d="M 0,0 0,7.729 C -0.771,7.533 -1.505,7.183 -2.202,6.681 -2.902,6.18 -3.642,5.556 -4.423,4.814 -5.206,4.072 -5.692,3.701 -5.877,3.701 c -0.231,0 -0.344,0.318 -0.344,0.95 0,0.632 0.617,1.751 1.858,3.357 1.241,1.606 2.612,3.09 4.114,4.455 1.502,1.362 2.585,2.046 3.253,2.046 0.395,0 0.739,-0.241 1.033,-0.722 C 4.328,13.31 4.474,12.653 4.474,11.822 4.474,11.279 4.465,10.774 4.44,10.317 4.423,9.857 4.399,9.246 4.382,8.482 4.357,7.72 4.328,6.616 4.286,5.176 c 4.608,5.153 7.338,7.729 8.193,7.729 0.252,0 0.457,-0.103 0.611,-0.311 0.155,-0.208 0.235,-0.466 0.235,-0.772 0,-0.718 -0.558,-1.828 -1.672,-3.321 C 10.538,7.005 9.79,6.257 9.416,6.257 8.894,6.257 8.489,6.343 8.195,6.518 L 4.224,1.214 c 0.042,-1.924 0.205,-3.352 0.484,-4.292 0.282,-0.939 0.786,-1.407 1.517,-1.407 0.626,0 1.356,0.326 2.187,0.982 0.837,0.656 2.191,1.867 4.067,3.636 l 0,-2.262 c -4.275,-6.177 -7.296,-9.267 -9.068,-9.267 -1.107,0 -1.89,0.612 -2.36,1.834 -0.469,1.224 -0.778,3.1 -0.926,5.631 -0.73,-0.783 -1.585,-1.733 -2.564,-2.845 -0.98,-1.117 -1.693,-1.907 -2.144,-2.375 -0.445,-0.472 -0.855,-0.858 -1.217,-1.164 -0.365,-0.306 -0.694,-0.457 -0.985,-0.457 -0.291,0 -0.44,0.261 -0.44,0.784 0,0.872 0.446,2.074 1.33,3.603 0.885,1.529 1.526,2.291 1.923,2.291 0.042,0 0.208,-0.044 0.502,-0.131 L 0,0 z"
             style="fill:#008e66;fill-opacity:1;fill-rule:nonzero;stroke:none"
             id="path270" /></g><g
           id="g272"
           transform="translate(396.7451,207.0859)"><path
             d="m 0,0 0,-2.193 c -2.229,-2.292 -4.049,-4.074 -5.456,-5.337 -1.407,-1.268 -2.719,-2.25 -3.941,-2.949 -1.218,-0.7 -2.411,-1.047 -3.581,-1.047 -1.145,0 -2.199,0.475 -3.158,1.424 -0.962,0.951 -1.71,2.195 -2.253,3.732 -0.543,1.54 -0.813,3.173 -0.813,4.897 0,1.485 0.311,2.805 0.941,3.963 0.623,1.157 1.834,2.654 3.627,4.485 2.125,2.185 4.102,3.871 5.925,5.061 1.825,1.191 3.259,1.784 4.301,1.784 0.751,0 1.386,-0.273 1.908,-0.816 0.522,-0.547 0.781,-1.235 0.781,-2.064 0,-0.7 -0.342,-1.694 -1.03,-2.982 C -3.438,6.669 -4.209,5.554 -5.064,4.604 -5.919,3.653 -6.596,3.179 -7.098,3.179 c -0.543,0 -0.813,0.305 -0.813,0.917 0.021,0.172 0.036,0.339 0.045,0.49 0.012,0.151 0.017,0.306 0.017,0.46 0,0.261 -0.089,0.406 -0.266,0.439 -0.179,0.036 -0.393,-0.047 -0.642,-0.244 -2.084,-1.528 -3.514,-2.602 -4.283,-3.225 -0.772,-0.624 -1.38,-1.25 -1.831,-1.883 -0.445,-0.635 -0.671,-1.3 -0.671,-1.997 0,-1.291 0.397,-2.339 1.188,-3.147 0.791,-0.807 1.825,-1.211 3.098,-1.211 1.312,0 2.891,0.529 4.737,1.588 C -4.673,-3.574 -2.5,-2.03 0,0"
             style="fill:#008e66;fill-opacity:1;fill-rule:nonzero;stroke:none"
             id="path274" /></g><g
           id="g276"
           transform="translate(401.9395,208.1006)"><path
             d="M 0,0 C 1.876,0.766 3.481,1.716 4.814,2.85 6.15,3.986 7.136,5.073 7.771,6.108 8.406,7.145 8.727,7.904 8.727,8.386 8.727,8.887 8.507,9.14 8.067,9.14 7.693,9.14 7.082,8.887 6.239,8.386 5.396,7.884 4.541,7.228 3.674,6.421 2.808,5.613 2.03,4.663 1.345,3.571 0.655,2.479 0.207,1.288 0,0 m -0.314,-2.128 0,-0.819 c 0,-1.288 0.302,-2.291 0.908,-3.013 0.605,-0.719 1.394,-1.08 2.377,-1.08 1.021,0 2.081,0.252 3.173,0.754 1.095,0.501 2.184,1.166 3.271,1.997 1.08,0.831 2.407,1.944 3.972,3.34 l 0,-1.998 c -2.358,-2.968 -4.569,-5.245 -6.631,-6.827 -2.067,-1.582 -4.162,-2.374 -6.287,-2.374 -1.859,0 -3.324,0.753 -4.411,2.258 -1.083,1.508 -1.626,3.571 -1.626,6.192 0,2.291 0.509,4.372 1.531,6.239 1.021,1.864 2.692,3.835 5.004,5.91 1.586,1.419 3.158,2.49 4.725,3.208 1.562,0.722 2.96,1.081 4.192,1.081 0.979,0 1.755,-0.234 2.327,-0.704 0.576,-0.469 0.861,-1.172 0.861,-2.11 0,-1.377 -0.49,-2.748 -1.469,-4.111 C 10.62,4.449 9.127,3.096 7.114,1.755 5.102,0.41 2.627,-0.882 -0.314,-2.128"
             style="fill:#008e66;fill-opacity:1;fill-rule:nonzero;stroke:none"
             id="path278" /></g><g
           id="g280"
           transform="translate(420.9238,213.4082)"><path
             d="m 0,0 c 1.084,1.113 2.131,2.377 3.141,3.799 1.015,1.419 1.964,2.935 2.861,4.551 0.896,1.617 1.602,3.069 2.113,4.357 0.511,1.288 0.766,2.259 0.766,2.915 0,0.501 -0.166,0.751 -0.498,0.751 -0.125,0 -0.368,-0.119 -0.722,-0.359 C 6.388,14.921 4.963,12.787 3.378,9.611 1.793,6.435 0.665,3.229 0,0 m 9.35,-5.896 0,-2.424 c -4.357,-6.046 -7.901,-9.071 -10.632,-9.071 -1.482,0 -2.642,0.846 -3.488,2.537 -0.845,1.693 -1.267,3.916 -1.267,6.667 0,2.227 0.498,4.874 1.502,7.941 1,3.065 2.339,6.18 4.018,9.335 1.678,3.152 3.42,5.903 5.225,8.251 1.802,2.348 3.473,3.99 5.017,4.928 0.629,0.394 1.115,0.59 1.471,0.59 0.44,0 0.731,-0.202 0.876,-0.605 0.146,-0.404 0.217,-1.099 0.217,-2.081 0,-3.033 -1.176,-6.762 -3.532,-11.185 -2.358,-4.419 -5.64,-8.933 -9.852,-13.541 -0.211,-1.134 -0.311,-2.009 -0.311,-2.618 0,-1.397 0.284,-2.534 0.86,-3.407 0.569,-0.872 1.368,-1.309 2.393,-1.309 0.519,0 1.08,0.21 1.685,0.638 0.606,0.425 1.241,0.956 1.909,1.588 0.667,0.633 1.971,1.888 3.909,3.766"
             style="fill:#008e66;fill-opacity:1;fill-rule:nonzero;stroke:none"
             id="path282" /></g><g
           id="g284"
           transform="translate(435.5928,213.4082)"><path
             d="m 0,0 c 1.084,1.113 2.132,2.377 3.141,3.799 1.014,1.419 1.964,2.935 2.861,4.551 0.896,1.617 1.602,3.069 2.113,4.357 0.511,1.288 0.766,2.259 0.766,2.915 0,0.501 -0.166,0.751 -0.498,0.751 -0.125,0 -0.368,-0.119 -0.722,-0.359 C 6.388,14.921 4.963,12.787 3.378,9.611 1.793,6.435 0.665,3.229 0,0 m 9.351,-5.896 0,-2.424 c -4.358,-6.046 -7.903,-9.071 -10.633,-9.071 -1.481,0 -2.642,0.846 -3.488,2.537 -0.845,1.693 -1.267,3.916 -1.267,6.667 0,2.227 0.499,4.874 1.502,7.941 1,3.065 2.339,6.18 4.018,9.335 1.678,3.152 3.42,5.903 5.225,8.251 1.802,2.348 3.473,3.99 5.017,4.928 0.629,0.394 1.116,0.59 1.471,0.59 0.44,0 0.731,-0.202 0.876,-0.605 0.146,-0.404 0.217,-1.099 0.217,-2.081 0,-3.033 -1.176,-6.762 -3.532,-11.185 -2.358,-4.419 -5.64,-8.933 -9.852,-13.541 -0.211,-1.134 -0.311,-2.009 -0.311,-2.618 0,-1.397 0.284,-2.534 0.86,-3.407 0.57,-0.872 1.368,-1.309 2.393,-1.309 0.519,0 1.08,0.21 1.685,0.638 0.606,0.425 1.241,0.956 1.909,1.588 0.667,0.633 1.971,1.888 3.91,3.766"
             style="fill:#008e66;fill-opacity:1;fill-rule:nonzero;stroke:none"
             id="path286" /></g><g
           id="g288"
           transform="translate(449.9775,208.1006)"><path
             d="M 0,0 C 1.876,0.766 3.484,1.716 4.817,2.85 6.149,3.986 7.136,5.073 7.771,6.108 8.409,7.145 8.727,7.904 8.727,8.386 8.727,8.887 8.507,9.14 8.07,9.14 7.693,9.14 7.085,8.887 6.239,8.386 5.396,7.884 4.541,7.228 3.675,6.421 2.811,5.613 2.033,4.663 1.347,3.571 0.658,2.479 0.207,1.288 0,0 m -0.312,-2.128 0,-0.819 c 0,-1.288 0.299,-2.291 0.905,-3.013 0.605,-0.719 1.398,-1.08 2.381,-1.08 1.021,0 2.078,0.252 3.172,0.754 1.096,0.501 2.182,1.166 3.269,1.997 1.083,0.831 2.41,1.944 3.972,3.34 l 0,-1.998 c -2.358,-2.968 -4.566,-5.245 -6.632,-6.827 -2.063,-1.582 -4.158,-2.374 -6.286,-2.374 -1.856,0 -3.324,0.753 -4.411,2.258 -1.08,1.508 -1.623,3.571 -1.623,6.192 0,2.291 0.509,4.372 1.531,6.239 1.021,1.864 2.692,3.835 5.004,5.91 1.582,1.419 3.158,2.49 4.722,3.208 1.565,0.722 2.963,1.081 4.192,1.081 0.979,0 1.758,-0.234 2.33,-0.704 0.573,-0.469 0.857,-1.172 0.857,-2.11 0,-1.377 -0.486,-2.748 -1.466,-4.111 C 10.623,4.449 9.13,3.096 7.117,1.755 5.104,0.41 2.63,-0.882 -0.312,-2.128"
             style="fill:#008e66;fill-opacity:1;fill-rule:nonzero;stroke:none"
             id="path290" /></g><g
           id="g292"
           transform="translate(484.4443,213.0781)"><path
             d="m 0,0 c -3.669,-4.276 -5.503,-7.257 -5.503,-8.939 0,-0.939 0.362,-1.408 1.092,-1.408 0.605,0 1.392,0.332 2.363,0.997 0.968,0.668 2.487,1.853 4.55,3.556 l 0,-2.262 c -2.959,-3.056 -5.232,-5.259 -6.817,-6.613 -1.585,-1.356 -2.88,-2.03 -3.877,-2.03 -1.713,0 -2.568,1.178 -2.568,3.535 0,0.698 0.104,1.387 0.312,2.063 0.208,0.677 0.499,1.38 0.861,2.114 0.364,0.73 0.923,1.778 1.674,3.143 0.751,1.365 1.614,2.908 2.594,4.633 -1.188,-0.632 -2.677,-1.888 -4.47,-3.767 -1.17,-1.177 -2.158,-2.296 -2.972,-3.353 -0.812,-1.06 -1.682,-2.241 -2.611,-3.538 -0.93,-1.301 -1.607,-2.173 -2.033,-2.621 -0.428,-0.448 -0.862,-0.671 -1.298,-0.671 -0.668,0 -1.282,0.729 -1.846,2.193 -0.561,1.463 -0.847,3.167 -0.847,5.112 0,1.199 0.131,2.136 0.393,2.813 0.261,0.677 0.777,1.639 1.549,2.883 1.436,2.314 2.678,4.013 3.723,5.093 1.042,1.081 2.042,1.621 3.003,1.621 0.665,0 1.203,-0.119 1.609,-0.36 0.407,-0.24 0.611,-0.611 0.611,-1.113 0,-0.22 -0.065,-0.448 -0.189,-0.688 -0.125,-0.241 -0.268,-0.46 -0.422,-0.656 -0.154,-0.196 -0.486,-0.579 -0.985,-1.146 -3.295,-3.82 -4.94,-6.298 -4.94,-7.433 0,-0.635 0.196,-0.949 0.594,-0.949 0.25,0 0.733,0.418 1.455,1.259 0.718,0.84 1.644,1.943 2.784,3.309 1.134,1.363 2.479,2.787 4.03,4.274 1.556,1.484 3.322,2.915 5.302,4.289 1.107,0.807 2.025,1.212 2.754,1.212 C 0.208,6.552 0.534,6.07 0.86,5.111 1.182,4.15 1.345,3.18 1.345,2.197 1.345,1.716 0.896,0.982 0,0"
             style="fill:#008e66;fill-opacity:1;fill-rule:nonzero;stroke:none"
             id="path294" /></g><g
           id="g296"
           transform="translate(505.584,207.0859)"><path
             d="m 0,0 0,-2.193 c -2.229,-2.292 -4.049,-4.074 -5.455,-5.337 -1.407,-1.268 -2.719,-2.25 -3.942,-2.949 -1.217,-0.7 -2.411,-1.047 -3.58,-1.047 -1.146,0 -2.2,0.475 -3.158,1.424 -0.962,0.951 -1.71,2.195 -2.253,3.732 -0.544,1.54 -0.813,3.173 -0.813,4.897 0,1.485 0.311,2.805 0.94,3.963 0.624,1.157 1.835,2.654 3.628,4.485 2.125,2.185 4.102,3.871 5.924,5.061 1.826,1.191 3.26,1.784 4.302,1.784 0.751,0 1.386,-0.273 1.908,-0.816 0.522,-0.547 0.78,-1.235 0.78,-2.064 0,-0.7 -0.341,-1.694 -1.029,-2.982 C -3.438,6.669 -4.209,5.554 -5.063,4.604 -5.918,3.653 -6.596,3.179 -7.097,3.179 c -0.543,0 -0.813,0.305 -0.813,0.917 0.02,0.172 0.035,0.339 0.045,0.49 0.011,0.151 0.017,0.306 0.017,0.46 0,0.261 -0.089,0.406 -0.267,0.439 -0.178,0.036 -0.392,-0.047 -0.641,-0.244 -2.084,-1.528 -3.515,-2.602 -4.283,-3.225 -0.772,-0.624 -1.381,-1.25 -1.832,-1.883 -0.445,-0.635 -0.67,-1.3 -0.67,-1.997 0,-1.291 0.397,-2.339 1.187,-3.147 0.792,-0.807 1.826,-1.211 3.098,-1.211 1.313,0 2.892,0.529 4.738,1.588 C -4.672,-3.574 -2.499,-2.03 0,0"
             style="fill:#008e66;fill-opacity:1;fill-rule:nonzero;stroke:none"
             id="path298" /></g><g
           id="g300"
           transform="translate(510.7783,208.1006)"><path
             d="M 0,0 C 1.876,0.766 3.482,1.716 4.814,2.85 6.15,3.986 7.136,5.073 7.771,6.108 8.406,7.145 8.727,7.904 8.727,8.386 8.727,8.887 8.507,9.14 8.068,9.14 7.694,9.14 7.083,8.887 6.239,8.386 5.396,7.884 4.542,7.228 3.675,6.421 2.809,5.613 2.03,4.663 1.345,3.571 0.656,2.479 0.208,1.288 0,0 m -0.314,-2.128 0,-0.819 c 0,-1.288 0.302,-2.291 0.908,-3.013 0.605,-0.719 1.395,-1.08 2.378,-1.08 1.02,0 2.08,0.252 3.173,0.754 1.095,0.501 2.184,1.166 3.27,1.997 1.081,0.831 2.408,1.944 3.972,3.34 l 0,-1.998 C 11.03,-5.915 8.819,-8.192 6.756,-9.774 4.69,-11.356 2.595,-12.148 0.47,-12.148 c -1.859,0 -3.325,0.753 -4.411,2.258 -1.083,1.508 -1.627,3.571 -1.627,6.192 0,2.291 0.51,4.372 1.532,6.239 1.02,1.864 2.691,3.835 5.004,5.91 1.585,1.419 3.158,2.49 4.725,3.208 1.562,0.722 2.959,1.081 4.192,1.081 0.979,0 1.754,-0.234 2.327,-0.704 0.575,-0.469 0.86,-1.172 0.86,-2.11 0,-1.377 -0.489,-2.748 -1.468,-4.111 C 10.621,4.449 9.128,3.096 7.115,1.755 5.103,0.41 2.627,-0.882 -0.314,-2.128"
             style="fill:#008e66;fill-opacity:1;fill-rule:nonzero;stroke:none"
             id="path302" /></g></g></g></g></svg>